<?xml version="1.0" encoding="utf-8"?>
<!-- Generator: Adobe Illustrator 26.0.1, SVG Export Plug-In . SVG Version: 6.00 Build 0)  -->
<svg version="1.1" id="Layer_1" xmlns="http://www.w3.org/2000/svg" xmlns:xlink="http://www.w3.org/1999/xlink" x="0px" y="0px"
	 viewBox="0 0 930.8 413.7" style="enable-background:new 0 0 930.8 413.7;" xml:space="preserve">
<style type="text/css">
	.st0{fill:#007C66;}
	.st1{fill:#008266;}
	.st2{fill:#008866;}
	.st3{fill:#17B094;}
	.st4{fill:#1DB69F;}
	.st5{fill:#11AA88;}
	.st6{fill:#007366;}
	.st7{fill:#008A66;}
	.st8{fill:#008766;}
	.st9{fill:#007D66;}
	.st10{fill:#11AA87;}
	.st11{fill:#1CB59F;}
	.st12{fill:#1CB59E;}
	.st13{clip-path:url(#SVGID_00000134243219163719723060000010174446508844018343_);}
	.st14{fill:#0EA783;}
	.st15{fill:#007F66;}
	.st16{fill:#008966;}
	.st17{fill:#008166;}
	.st18{fill:#008666;}
	.st19{fill:#10A986;}
	.st20{fill:#10A985;}
	.st21{fill:#008066;}
	.st22{fill:#008B66;}
	.st23{fill:#0FA885;}
	.st24{fill:#008C66;}
	.st25{fill:#26BFB2;}
	.st26{fill:#0FA884;}
	.st27{fill:#007E66;}
	.st28{fill:#19B298;}
	.st29{fill:#17B093;}
	.st30{fill:#0FA883;}
	.st31{fill:#16AF93;}
	.st32{fill:#008366;}
	.st33{fill:#0EA782;}
	.st34{fill:#008566;}
	.st35{clip-path:url(#SVGID_00000109740136496314056860000016895390039561032329_);}
	.st36{fill:#0DA681;}
	.st37{fill:#0DA680;}
	.st38{clip-path:url(#SVGID_00000163039957009581729660000009134744205208788150_);}
	.st39{clip-path:url(#SVGID_00000162329548057279549000000012299710058314572987_);}
	.st40{clip-path:url(#SVGID_00000080207555139670076420000010320287495248838321_);}
	.st41{fill:#14AD8F;}
	.st42{clip-path:url(#SVGID_00000130637312532440881460000005207215600190492829_);}
	.st43{clip-path:url(#SVGID_00000087396559325516417440000009670418890078647179_);}
	.st44{clip-path:url(#SVGID_00000028303625003455384440000014240074390433627291_);}
	.st45{fill:#13AC8C;}
	.st46{clip-path:url(#SVGID_00000034775734709838625950000013002758697130831750_);}
	.st47{clip-path:url(#SVGID_00000145772835122027143030000015930785082607097221_);}
	.st48{clip-path:url(#SVGID_00000147920864528478513800000003290577311134021535_);}
	.st49{clip-path:url(#SVGID_00000116210957711802926180000013754331181375642554_);}
	.st50{clip-path:url(#SVGID_00000106856359745454472410000010615862522766023044_);}
	.st51{fill:#1AB399;}
	.st52{clip-path:url(#SVGID_00000026860407508148120690000004632061284467055805_);}
	.st53{clip-path:url(#SVGID_00000126304802451460343650000014659614153826912432_);}
	.st54{clip-path:url(#SVGID_00000124149430913558743610000009972487699109720724_);}
	.st55{clip-path:url(#SVGID_00000003077804056641528920000010183919357650431420_);}
	.st56{fill:#008466;}
	.st57{fill:#1BB49B;}
	.st58{clip-path:url(#SVGID_00000049185339856507891640000000384341997967670970_);}
	.st59{fill:#18B195;}
	.st60{fill:#007966;}
	.st61{clip-path:url(#SVGID_00000177453748727390623580000010225852283931822759_);}
	.st62{fill:#1CB59D;}
	.st63{fill:#1BB49C;}
	.st64{fill:#16AF92;}
	.st65{fill:#007B66;}
	.st66{fill:#1BB49D;}
	.st67{clip-path:url(#SVGID_00000061435238107770766980000017639433565485104830_);}
	.st68{fill:#1DB6A0;}
	.st69{clip-path:url(#SVGID_00000140714881493675413440000013601556442557172639_);}
</style>
<polygon class="st0" points="762.8,0.5 760.2,10.9 698.1,19.5 700.5,9 "/>
<polygon class="st0" points="700.5,9 698.1,19.5 196.6,89.1 196.6,78.1 "/>
<polygon class="st1" points="726.4,24.7 723.9,35.2 697.4,19.6 699.7,9.1 "/>
<polygon class="st2" points="745,53 742.4,63.6 723.9,35.2 726.4,24.7 "/>
<polygon class="st3" points="745,53 742.4,63.6 729.8,82.9 732.3,72.3 "/>
<polygon class="st1" points="745.7,53.1 743.1,63.7 730.5,83.1 733,72.4 "/>
<polygon class="st2" points="740.8,85.6 738.2,96.2 729.7,83 732.3,72.4 "/>
<polygon class="st2" points="776.5,101.4 773.7,112 770.5,107.2 773.3,96.6 "/>
<polygon class="st0" points="773.3,96.6 770.5,107.2 754.4,109.7 757.1,99 "/>
<polygon class="st0" points="757.1,99 754.4,109.7 754.1,109.7 756.8,99.1 "/>
<polygon class="st2" points="756.8,99.1 754.1,109.7 753.8,109.3 756.5,98.7 "/>
<polygon class="st4" points="776.5,101.4 773.7,112 757.6,114.6 760.3,103.9 "/>
<polygon class="st5" points="760.3,103.9 757.6,114.6 754.4,109.7 757.1,99 "/>
<polygon class="st0" points="777.4,101.8 774.6,112.4 757.8,115 760.5,104.4 "/>
<polygon class="st6" points="773.6,96 777.4,101.8 760.5,104.4 760.5,104.4 760.2,103.9 760.3,103.9 776.5,101.4 773.3,96.6 
	757.1,99 756.8,99.1 756.5,98.7 "/>
<polygon class="st2" points="760.5,104.4 757.8,115 757.5,114.6 760.2,103.9 "/>
<polygon class="st0" points="760.5,104.4 757.8,115 757.8,115 760.5,104.4 "/>
<polygon class="st0" points="756.5,99.1 753.8,109.8 728.6,113.7 731.2,103 "/>
<polygon class="st2" points="769.6,119.4 766.9,130 753.8,109.8 756.5,99.1 "/>
<polygon class="st7" points="769.8,119.8 767.1,130.5 766.9,130 769.6,119.4 "/>
<polygon class="st8" points="856.4,137 853.2,147.6 760.2,10.9 762.8,0.5 "/>
<polygon class="st1" points="731.2,103 728.6,113.7 715,134.9 717.5,124.2 "/>
<polygon class="st8" points="835.3,140.8 832.2,151.4 823.7,138.6 826.7,128.1 "/>
<polygon class="st9" points="856,137.4 852.9,148 832.2,151.4 835.3,140.8 "/>
<polygon class="st10" points="719.4,127.2 716.9,137.9 715,134.9 717.5,124.2 "/>
<polygon class="st11" points="769.5,119.4 766.8,130 716.9,137.9 719.4,127.2 "/>
<polygon class="st9" points="780.3,134.9 777.4,145.6 776.8,145.7 779.6,135 "/>
<polygon class="st9" points="769.9,119.8 767.2,130.5 717.2,138.4 719.7,127.7 "/>
<polygon class="st2" points="779.6,135 776.8,145.7 767.1,130.5 769.8,119.8 "/>
<polygon class="st9" points="826.7,128.1 823.7,138.6 777.7,146 780.6,135.4 "/>
<polygon class="st2" points="719.4,127.7 716.8,138.4 716.5,137.9 719.1,127.3 "/>
<polygon class="st9" points="719.7,127.7 717.2,138.4 716.8,138.4 719.4,127.7 "/>
<polygon class="st9" points="780.6,135.4 777.7,146 777.1,146.1 779.9,135.5 "/>
<polygon class="st10" points="729.2,143.1 726.6,153.8 717.2,138.4 719.7,127.7 "/>
<polygon class="st11" points="779.6,135 776.8,145.7 726.6,153.8 729.2,143.1 "/>
<polygon class="st9" points="779.9,135.5 777.1,146.1 726.9,154.2 729.5,143.5 "/>
<polygon class="st8" points="729.5,143.5 726.9,154.2 726.5,153.8 729.1,143.1 "/>
<polygon class="st10" points="750,176.7 747.2,187.4 726.9,154.2 729.5,143.5 "/>
<polygon class="st5" points="815,188.6 811.9,199.3 777.7,146 780.6,135.4 "/>
<polygon class="st2" points="801.2,168.2 798.2,178.9 777.1,146.1 779.9,135.5 "/>
<polygon class="st12" points="801.1,168.2 798.1,178.9 747.2,187.4 750,176.7 "/>
<polygon class="st7" points="801.4,168.7 798.4,179.4 798.2,178.9 801.2,168.2 "/>
<polygon class="st9" points="801.5,168.7 798.5,179.4 747.5,187.9 750.2,177.2 "/>
<polygon class="st7" points="750,176.7 747.2,187.4 747,187.9 749.8,177.2 "/>
<polygon class="st2" points="749.8,177.2 747,187.9 746.7,187.5 749.5,176.8 "/>
<polygon class="st9" points="750.2,177.2 747.5,187.9 747,187.9 749.8,177.2 "/>
<g>
	<g>
		<defs>
			<path id="SVGID_1_" d="M815.5,189.6l-3.1,10.7l-0.1-0.2c0-0.1-0.1-0.1-0.1-0.2l-0.2-0.2c-0.1-0.1-0.1-0.1-0.2-0.2l3.1-10.7
				l0.2,0.2l0.2,0.2l0.1,0.2L815.5,189.6z"/>
		</defs>
		<clipPath id="SVGID_00000129927250587809483420000015458963964154447767_">
			<use xlink:href="#SVGID_1_"  style="overflow:visible;"/>
		</clipPath>
		<g style="clip-path:url(#SVGID_00000129927250587809483420000015458963964154447767_);">
			<g>
				<path class="st14" d="M815.5,189.6l-3.1,10.7l-0.1-0.2c0-0.1-0.1-0.1-0.1-0.2l-0.2-0.2c-0.1-0.1-0.1-0.1-0.2-0.2l3.1-10.7
					l0.2,0.2l0.2,0.2l0.1,0.2L815.5,189.6"/>
			</g>
		</g>
	</g>
</g>
<polygon class="st5" points="815.5,189.6 812.5,200.2 811.9,199.3 815,188.6 "/>
<polygon class="st5" points="816.5,191 813.4,201.7 812.5,200.2 815.5,189.6 "/>
<polygon class="st2" points="815.5,190.6 812.4,201.3 798.4,179.4 801.4,168.7 "/>
<polygon class="st10" points="763.9,199.3 761.1,210.1 747.5,187.9 750.2,177.2 "/>
<polygon class="st12" points="815.5,190.6 812.4,201.3 761.1,210.1 763.9,199.3 "/>
<polygon class="st9" points="816.5,191 813.4,201.7 761.4,210.6 764.3,199.8 "/>
<polygon class="st6" points="827,127.5 835.6,140.2 855.7,137 856.4,137 930.8,245.9 930.3,246.2 856,137.4 835.3,140.8 
	826.7,128.1 780.6,135.4 779.9,135.5 729.5,143.5 729.1,143.1 779.6,135 780.3,134.9 "/>
<polygon class="st10" points="806.7,268.4 803.5,279.1 761.4,210.6 764.3,199.9 "/>
<polygon class="st6" points="756.5,98.7 756.8,99.1 760.3,103.9 760.5,104.4 780.3,134.9 779.6,135 769.8,119.8 769.6,119.4 
	756.5,99.1 731.2,103 717.5,124.2 719.4,127.2 719.4,127.7 729.2,143.1 729.4,143.5 750,176.7 749.8,177.2 763.9,199.3 815.5,190.6 
	801.4,168.7 801.2,168.2 779.9,135.5 780.6,135.4 815,188.6 815.5,189.6 816.5,191 764.3,199.8 806.5,268.3 805.9,268.5 
	716.8,124.1 730.6,102.6 "/>
<polygon class="st6" points="769.5,119.4 769.9,119.8 719.7,127.7 719.4,127.7 719.1,127.3 719.4,127.2 "/>
<polygon class="st15" points="641.3,121.2 639.1,131.9 638.3,131.8 640.5,121 "/>
<polygon class="st0" points="659.8,118.3 657.5,129.1 639.1,131.9 641.3,121.2 "/>
<polygon class="st16" points="640.6,121.3 638.4,132 638.3,131.8 640.5,121 "/>
<polygon class="st16" points="641,121.8 638.8,132.6 638.4,132 640.6,121.3 "/>
<polygon class="st16" points="641,122 638.9,132.8 638.8,132.6 641,121.8 "/>
<polygon class="st17" points="686.6,128.8 684.2,139.5 657.5,129.1 659.8,118.3 "/>
<polygon class="st18" points="687.1,129.4 684.7,140.1 684.2,139.5 686.6,128.8 "/>
<polygon class="st17" points="687.8,129.6 685.4,140.3 684.7,140.1 687.1,129.4 "/>
<polygon class="st1" points="687.8,129.6 685.4,140.3 685,140.9 687.5,130.2 "/>
<polygon class="st0" points="625.4,123.2 623.3,133.9 622.6,134.1 624.8,123.3 "/>
<polygon class="st0" points="640.5,121 638.3,131.8 623.5,134.3 625.6,123.6 "/>
<polygon class="st16" points="625.6,123.6 623.5,134.3 623.3,133.9 625.4,123.2 "/>
<polygon class="st16" points="625,123.7 622.8,134.4 622.6,134.1 624.8,123.3 "/>
<polygon class="st3" points="687,129.5 684.6,140.2 680.3,146.8 682.7,136.1 "/>
<polygon class="st1" points="687.5,130.2 685,140.9 680.9,147.2 683.3,136.5 "/>
<polygon class="st15" points="602.7,127.1 600.7,137.9 599.9,137.7 601.9,126.9 "/>
<polygon class="st0" points="625,123.7 622.8,134.4 600.7,137.9 602.7,127.1 "/>
<polygon class="st7" points="602.1,127.2 600.1,138 599.9,137.7 601.9,126.9 "/>
<polygon class="st0" points="579.7,130.2 577.7,141 577.1,141.1 579,130.3 "/>
<polygon class="st7" points="579.9,130.6 577.9,141.4 577.7,141 579.7,130.2 "/>
<polygon class="st0" points="601.9,126.9 599.9,137.7 577.9,141.4 579.9,130.6 "/>
<polygon class="st7" points="579.2,130.7 577.3,141.5 577.1,141.1 579,130.3 "/>
<polygon class="st11" points="682.7,136.1 680.3,146.8 650.4,151.6 652.7,140.8 "/>
<polygon class="st19" points="652.7,140.8 650.4,151.6 639.1,131.9 641.3,121.2 "/>
<polygon class="st16" points="652,140.9 649.7,151.7 638.9,132.8 641,122 "/>
<polygon class="st6" points="641.1,120.9 641.3,121.2 652.7,140.8 652,140.9 641,122 641,121.8 640.6,121.3 640.5,121 "/>
<polygon class="st9" points="652.7,140.8 650.4,151.6 649.7,151.7 652,140.9 "/>
<polygon class="st20" points="636.9,143.3 634.7,154 623.5,134.3 625.6,123.6 "/>
<polygon class="st11" points="652,140.9 649.7,151.6 634.7,154 636.9,143.3 "/>
<polygon class="st0" points="579.2,130.7 577.3,141.5 558.8,144.4 560.6,133.6 "/>
<polygon class="st15" points="560.6,133.6 558.8,144.4 558,144.2 559.8,133.4 "/>
<polygon class="st9" points="636.9,143.3 634.7,154 634.3,154.1 636.5,143.3 "/>
<polygon class="st7" points="559.9,133.7 558.1,144.5 558,144.2 559.8,133.4 "/>
<polygon class="st0" points="161,82.4 161.1,93.5 160.2,93.6 160.1,82.6 "/>
<polygon class="st9" points="683.3,136.5 680.9,147.2 634.9,154.5 637.1,143.8 "/>
<polygon class="st6" points="687.1,129.4 687.8,129.6 687.5,130.2 683.3,136.5 637.1,143.8 636.8,143.8 636.5,143.3 636.9,143.3 
	652,140.9 652.7,140.8 682.7,136.1 687,129.5 "/>
<polygon class="st16" points="636.8,143.8 634.6,154.6 634.3,154.1 636.5,143.3 "/>
<polygon class="st9" points="637.1,143.8 634.9,154.5 634.6,154.6 636.8,143.8 "/>
<polygon class="st0" points="196.6,78.1 196.6,89.1 161.3,94 161.2,82.9 "/>
<polygon class="st6" points="161.2,82.9 177.4,80.7 763.1,0 856.4,137 762.8,0.5 700.5,9 196.7,78.2 "/>
<polygon class="st16" points="703.8,156.7 701.3,167.4 685,140.9 687.5,130.2 "/>
<polygon class="st9" points="704.1,157.2 701.6,167.9 701.2,168 703.7,157.3 "/>
<polygon class="st0" points="559.8,133.4 558,144.2 531.2,148.6 532.9,137.8 "/>
<polygon class="st21" points="532.9,137.8 531.2,148.6 530.4,148.4 532.1,137.6 "/>
<polygon class="st7" points="532.3,137.9 530.5,148.8 530.4,148.4 532.1,137.6 "/>
<polygon class="st12" points="703.4,156.8 700.9,167.5 647.3,176.2 649.6,165.4 "/>
<polygon class="st9" points="681.2,160.5 678.7,171.2 678.1,171.3 680.5,160.6 "/>
<polygon class="st9" points="703.7,157.3 701.2,168 679,171.6 681.4,160.9 "/>
<polygon class="st16" points="681.4,160.9 679,171.6 678.7,171.2 681.2,160.5 "/>
<polygon class="st16" points="680.7,161 678.3,171.7 678.1,171.3 680.5,160.6 "/>
<polygon class="st20" points="644.5,156.6 642.2,167.4 634.9,154.5 637.1,143.8 "/>
<polygon class="st16" points="643.8,156.7 641.5,167.5 622.8,134.4 625,123.7 "/>
<polygon class="st20" points="649.6,165.4 647.3,176.2 642.2,167.4 644.5,156.6 "/>
<polygon class="st16" points="644.7,156.9 642.4,167.7 642.2,167.4 644.5,156.6 "/>
<polygon class="st16" points="644,157.1 641.8,167.8 641.5,167.5 643.8,156.7 "/>
<polygon class="st6" points="625.4,123.2 625.6,123.6 636.9,143.3 636.5,143.3 636.8,143.8 637.1,143.8 644.5,156.6 644.7,156.9 
	644,157.1 643.8,156.7 625,123.7 624.8,123.3 "/>
<polygon class="st9" points="644.7,156.9 642.4,167.7 641.8,167.8 644,157.1 "/>
<polygon class="st0" points="532.1,137.6 530.4,148.4 508.1,152.2 509.7,141.4 "/>
<polygon class="st22" points="509.7,141.4 508.1,152.2 507.9,151.8 509.5,140.9 "/>
<polygon class="st22" points="509,141.5 507.4,152.3 507.2,151.9 508.8,141 "/>
<polygon class="st23" points="621.3,160.3 619.1,171.1 600.7,137.9 602.7,127.1 "/>
<polygon class="st11" points="643.8,156.7 641.5,167.5 619.1,171.1 621.3,160.3 "/>
<polygon class="st7" points="620.6,160.4 618.5,171.2 600.1,138 602.1,127.2 "/>
<polygon class="st6" points="602.6,126.8 602.7,127.1 621.3,160.3 621.3,160.4 620.7,160.5 620.6,160.4 602.1,127.2 601.9,126.9 "/>
<polygon class="st9" points="621.3,160.4 619.2,171.2 618.5,171.3 620.7,160.5 "/>
<polygon class="st7" points="620.7,160.5 618.5,171.3 618.5,171.2 620.6,160.4 "/>
<polygon class="st6" points="801.1,168.2 801.5,168.7 750.2,177.2 749.8,177.2 749.5,176.8 750,176.7 "/>
<polygon class="st16" points="713.8,173.5 711.2,184.2 701.2,168 703.7,157.3 "/>
<polygon class="st24" points="713.8,174 711.2,184.8 711.2,184.2 713.8,173.5 "/>
<polygon class="st9" points="714.1,174 711.5,184.7 711.2,184.8 713.8,174 "/>
<polygon class="st9" points="680.7,161 678.3,171.7 647.6,176.7 649.9,165.9 "/>
<polygon class="st2" points="649.9,165.9 647.6,176.7 647.2,176.2 649.5,165.4 "/>
<polygon class="st6" points="703.8,156.7 704.1,157.2 703.7,157.3 681.4,160.9 681.2,160.5 680.5,160.6 680.7,161 649.9,165.9 
	649.5,165.4 703.4,156.8 "/>
<polygon class="st0" points="509,141.5 507.4,152.3 483.9,156 485.4,145.1 "/>
<polygon class="st16" points="649.4,166.3 647.1,177.1 641.8,167.9 644.1,157.2 "/>
<path class="st25" d="M815,188.6l0.2,0.2l0.2,0.2l0.1,0.2l0.1,0.2L815,188.6z"/>
<polygon class="st26" points="598.1,164 596,174.8 577.9,141.4 579.9,130.6 "/>
<polygon class="st11" points="620.6,160.4 618.5,171.2 596,174.8 598.1,164 "/>
<polygon class="st7" points="597.4,164.1 595.3,174.9 577.3,141.5 579.2,130.7 "/>
<polygon class="st7" points="598.2,164.2 596.2,175 596,174.8 598.1,164 "/>
<polygon class="st6" points="579.7,130.2 579.9,130.6 598.1,164 598.2,164.2 597.5,164.3 597.4,164.1 579.2,130.7 579,130.3 "/>
<polygon class="st7" points="597.5,164.3 595.5,175.1 595.3,174.9 597.4,164.1 "/>
<polygon class="st9" points="598.2,164.2 596.2,175 595.5,175.1 597.5,164.3 "/>
<polygon class="st12" points="713.5,173.6 710.9,184.3 688.5,188 691,177.2 "/>
<polygon class="st19" points="691,177.2 688.5,188 679,171.6 681.4,160.9 "/>
<polygon class="st27" points="485.4,145.1 483.9,156 479.8,161.3 481.2,150.4 "/>
<polygon class="st9" points="713.8,174 711.2,184.8 688.8,188.5 691.3,177.7 "/>
<polygon class="st0" points="481.2,150.4 479.8,161.3 479.2,161.7 480.7,150.8 "/>
<polygon class="st9" points="691.3,177.7 688.8,188.5 688.7,188.5 691.2,177.7 "/>
<polygon class="st16" points="691.2,177.7 688.7,188.5 688.4,188 690.9,177.2 "/>
<polygon class="st6" points="713.8,173.5 714.1,174 713.8,174 691.3,177.7 691.2,177.7 690.9,177.2 691,177.2 713.5,173.6 "/>
<polygon class="st1" points="480.9,150.9 479.4,161.8 479.2,161.7 480.7,150.8 "/>
<polygon class="st20" points="671.6,203.4 669.1,214.2 647.6,176.7 649.9,165.9 "/>
<polygon class="st16" points="654.7,175.5 652.3,186.2 647.1,177.1 649.4,166.3 "/>
<polygon class="st11" points="597.4,164.1 595.3,174.9 576.6,177.9 578.5,167.1 "/>
<polygon class="st26" points="578.5,167.1 576.6,177.9 558.8,144.4 560.6,133.6 "/>
<polygon class="st7" points="577.9,167.2 575.9,178 558.1,144.5 559.9,133.7 "/>
<polygon class="st7" points="578.8,167.6 576.8,178.4 576.6,177.9 578.5,167.1 "/>
<polygon class="st7" points="578.1,167.7 576.2,178.5 575.9,178 577.9,167.2 "/>
<polygon class="st9" points="578.8,167.6 576.8,178.4 576.2,178.5 578.1,167.7 "/>
<polygon class="st6" points="560.5,133.3 560.6,133.6 578.5,167.1 578.8,167.6 578.1,167.7 577.9,167.2 559.9,133.7 559.8,133.4 "/>
<polygon class="st15" points="480.7,150.8 479.2,161.7 476.4,165.8 477.8,154.9 "/>
<polygon class="st16" points="721.1,186.3 718.5,197.1 711.2,184.8 713.8,174 "/>
<polygon class="st28" points="721.1,186.3 718.5,197.1 708.6,194.1 711.2,183.4 "/>
<polygon class="st21" points="721.8,186.5 719.2,197.2 718.5,197.1 721.1,186.3 "/>
<polygon class="st21" points="721.2,186.8 718.5,197.6 708.7,194.6 711.2,183.9 "/>
<polygon class="st21" points="721.7,187 719,197.7 718.5,197.6 721.2,186.8 "/>
<polygon class="st8" points="721.8,186.5 719.2,197.2 719,197.7 721.7,187 "/>
<polygon class="st22" points="477.6,155.9 476.1,166.8 475.6,165.7 477,154.8 "/>
<polygon class="st14" points="520.2,162 518.5,172.9 508.1,152.2 509.7,141.4 "/>
<polygon class="st22" points="519.2,161.6 517.6,172.5 507.4,152.3 509,141.5 "/>
<polygon class="st19" points="696.1,185.9 693.5,196.6 688.8,188.5 691.3,177.7 "/>
<polygon class="st12" points="711.2,183.4 708.6,194.1 693.5,196.6 696.1,185.9 "/>
<polygon class="st9" points="696.1,185.9 693.5,196.6 693.3,196.6 695.8,185.9 "/>
<polygon class="st9" points="711.2,183.9 708.7,194.6 693.8,197.1 696.4,186.3 "/>
<polygon class="st9" points="696.4,186.3 693.8,197.1 693.6,197.1 696.1,186.4 "/>
<polygon class="st16" points="696.1,186.4 693.6,197.1 693.3,196.6 695.8,185.9 "/>
<polygon class="st6" points="711.2,183.4 721.1,186.3 721.8,186.5 721.7,187 721.2,186.8 711.2,183.9 696.4,186.3 696.1,186.4 
	695.8,185.9 696.1,185.9 "/>
<polygon class="st11" points="519.2,161.6 517.6,172.5 506.3,174.3 507.9,163.4 "/>
<polygon class="st29" points="507.9,163.4 506.3,174.3 479.8,161.3 481.2,150.4 "/>
<polygon class="st1" points="508,163.5 506.4,174.3 506.3,174.3 507.9,163.4 "/>
<polygon class="st0" points="160.1,82.6 160.2,93.6 25.5,112.8 24.8,101.7 "/>
<polygon class="st1" points="507,163.5 505.4,174.4 479.4,161.8 480.9,150.9 "/>
<polygon class="st1" points="507.7,163.9 506,174.7 505.4,174.4 507,163.5 "/>
<polygon class="st6" points="481.1,150.4 481.2,150.4 507.9,163.4 508,163.5 507.7,163.9 507,163.5 480.9,150.9 480.7,150.8 "/>
<polygon class="st9" points="508,163.5 506.4,174.3 506,174.7 507.7,163.9 "/>
<polygon class="st30" points="550.5,171.6 548.7,182.4 531.2,148.6 532.9,137.8 "/>
<polygon class="st11" points="577.9,167.2 575.9,178 548.7,182.4 550.5,171.6 "/>
<polygon class="st9" points="550.5,171.6 548.7,182.4 548.3,182.5 550.1,171.6 "/>
<polygon class="st1" points="453.5,159.4 452.1,170.3 435.9,163.7 437.1,152.7 "/>
<polygon class="st9" points="644.1,157.2 641.8,167.9 548.9,182.9 550.7,172 "/>
<polygon class="st7" points="550.4,172.1 548.6,182.9 548.3,182.5 550.1,171.6 "/>
<polygon class="st9" points="550.7,172 548.9,182.9 548.6,182.9 550.4,172.1 "/>
<polygon class="st17" points="413.4,156.4 412.2,167.3 411.4,167.1 412.5,156.1 "/>
<polygon class="st0" points="437.1,152.7 435.9,163.7 412.2,167.3 413.4,156.4 "/>
<polygon class="st24" points="412.7,156.5 411.5,167.4 411.4,167.1 412.5,156.1 "/>
<polygon class="st31" points="721.2,186.8 718.5,197.6 712.1,207 714.8,196.2 "/>
<polygon class="st32" points="722.1,186.7 719.5,197.5 712.7,207.4 715.3,196.7 "/>
<polygon class="st11" points="507,163.5 505.4,174.4 482.3,178.1 483.8,167.2 "/>
<polygon class="st33" points="483.8,167.2 482.3,178.1 476.4,165.8 477.8,154.9 "/>
<polygon class="st9" points="520.2,162 518.5,172.9 482.5,178.6 484.1,167.7 "/>
<polygon class="st34" points="483.8,167.2 482.3,178.1 482.1,178.6 483.6,167.7 "/>
<polygon class="st9" points="484.1,167.7 482.5,178.6 482.1,178.6 483.6,167.7 "/>
<polygon class="st22" points="483.6,167.7 482.1,178.6 481.9,178.1 483.4,167.2 "/>
<polygon class="st6" points="509.5,140.9 509.7,141.4 520.2,162 484.1,167.7 483.6,167.7 483.4,167.2 483.8,167.2 507,163.5 
	507.7,163.9 508,163.5 507.9,163.4 519.2,161.6 509,141.5 508.8,141 "/>
<polygon class="st19" points="703.3,198.1 700.7,208.9 693.8,197.1 696.4,186.3 "/>
<polygon class="st12" points="714.8,196.2 712.1,207 700.7,208.9 703.3,198.1 "/>
<polygon class="st16" points="702.6,198.2 700,209 678.3,171.7 680.7,161 "/>
<polygon class="st9" points="703.5,198.4 700.9,209.2 700.2,209.3 702.8,198.5 "/>
<polygon class="st16" points="702.8,198.5 700.2,209.3 700,209 702.6,198.2 "/>
<polygon class="st12" points="702.6,198.2 700,209 669.1,214.2 671.6,203.4 "/>
<polygon class="st9" points="671.6,203.4 669.1,214.2 668.5,214.3 670.9,203.6 "/>
<polygon class="st6" points="644.5,156.6 649.6,165.4 649.8,165.9 671.6,203.4 670.9,203.6 654.7,175.5 649.4,166.3 644.1,157.2 
	550.7,172 550.4,172.1 550.1,171.6 550.5,171.6 577.9,167.2 578.1,167.7 578.8,167.6 578.5,167.1 597.4,164.1 597.5,164.3 
	598.2,164.2 598.1,164 620.6,160.4 621.3,160.4 643.8,156.7 644,157.1 644.7,156.9 "/>
<polygon class="st16" points="670.9,203.6 668.5,214.3 652.3,186.2 654.7,175.5 "/>
<polygon class="st33" points="497.5,195.2 495.9,206.1 482.5,178.6 484.1,167.7 "/>
<polygon class="st30" points="558.1,186.3 556.3,197.1 548.9,182.9 550.7,172 "/>
<polygon class="st7" points="557,185.6 555.1,196.4 530.5,148.8 532.3,137.9 "/>
<polygon class="st12" points="557,185.6 555.1,196.4 495.9,206.1 497.5,195.2 "/>
<polygon class="st9" points="527.7,190.6 525.9,201.5 525.2,201.6 526.9,190.7 "/>
<polygon class="st22" points="527.1,190.9 525.3,201.8 525.2,201.6 526.9,190.7 "/>
<polygon class="st9" points="527.1,190.9 525.3,201.8 496.1,206.6 497.7,195.7 "/>
<polygon class="st9" points="497.7,195.7 496.1,206.6 495.9,206.6 497.5,195.7 "/>
<polygon class="st22" points="497.5,195.7 495.9,206.6 495.6,206.1 497.2,195.2 "/>
<polygon class="st30" points="573.7,216.3 571.8,227.1 556.3,197.1 558.1,186.3 "/>
<g>
	<g>
		<defs>
			<path id="SVGID_00000154383604779744691980000006356092468482142086_" d="M575.4,219.5l-2,10.9l-0.4-0.8l-0.4-0.8l-0.4-0.8
				c-0.1-0.3-0.3-0.5-0.4-0.8l2-10.9l0.4,0.8l0.4,0.8l0.4,0.8C575.1,219,575.3,219.2,575.4,219.5z"/>
		</defs>
		<clipPath id="SVGID_00000145740521861860927810000002818224091232819874_">
			<use xlink:href="#SVGID_00000154383604779744691980000006356092468482142086_"  style="overflow:visible;"/>
		</clipPath>
		<g style="clip-path:url(#SVGID_00000145740521861860927810000002818224091232819874_);">
			<g>
				<path class="st14" d="M575.4,219.5l-2,10.9l-0.4-0.8l-0.4-0.8l-0.4-0.8c-0.1-0.3-0.3-0.5-0.4-0.8l2-10.9l0.4,0.8l0.4,0.8
					l0.4,0.8C575.2,218.9,575.3,219.2,575.4,219.5"/>
			</g>
		</g>
	</g>
</g>
<polygon class="st12" points="670.9,203.6 668.5,214.3 573.4,230.4 575.4,219.5 "/>
<polygon class="st7" points="557.5,186.4 555.6,197.3 555.1,196.4 557,185.6 "/>
<polygon class="st9" points="558.1,186.3 556.3,197.1 555.6,197.3 557.5,186.4 "/>
<polygon class="st7" points="574.7,219.6 572.7,230.5 555.4,196.9 557.3,186.1 "/>
<polygon class="st7" points="574.8,219.9 572.8,230.8 572.7,230.5 574.7,219.6 "/>
<polygon class="st9" points="575.5,219.8 573.5,230.6 572.8,230.8 574.8,219.9 "/>
<polygon class="st33" points="508.6,218 507,228.9 496.1,206.6 497.7,195.7 "/>
<polygon class="st9" points="557.3,186.1 555.4,196.9 526,201.7 527.8,190.8 "/>
<polygon class="st14" points="544.8,224.6 543,235.5 526,201.7 527.8,190.8 "/>
<polygon class="st12" points="574.7,219.6 572.7,230.5 543,235.5 544.8,224.6 "/>
<polygon class="st22" points="527.8,190.8 526,201.7 525.9,201.5 527.7,190.6 "/>
<polygon class="st22" points="544.1,224.7 542.2,235.6 525.3,201.8 527.1,190.9 "/>
<polygon class="st9" points="544.9,224.9 543.1,235.8 542.4,235.9 544.2,225 "/>
<polygon class="st22" points="544.2,225 542.4,235.9 542.2,235.6 544.1,224.7 "/>
<polygon class="st3" points="530.5,227 528.7,237.9 507,228.9 508.6,218 "/>
<polygon class="st12" points="544.1,224.7 542.2,235.6 528.7,237.9 530.5,227 "/>
<polygon class="st6" points="681.2,160.5 681.4,160.9 691,177.2 691.2,177.7 696.1,185.9 695.8,185.9 696.1,186.4 696.4,186.3 
	703.3,198.1 703.5,198.4 702.8,198.5 702.6,198.2 680.7,161 680.5,160.6 "/>
<polygon class="st0" points="412.5,156.1 411.4,167.1 387.8,171.1 388.8,160.2 "/>
<polygon class="st15" points="388.8,160.2 387.8,171.1 387,171 388,160 "/>
<polygon class="st24" points="388.1,160.3 387.1,171.2 387,171 388,160 "/>
<polygon class="st22" points="459.7,171.8 458.3,182.7 452.1,170.3 453.5,159.4 "/>
<polygon class="st0" points="204.1,132.4 204,143.4 178.6,147.2 178.6,136.1 "/>
<polygon class="st24" points="178.6,136.1 178.6,147.2 160.6,94.1 160.5,83 "/>
<polygon class="st24" points="459.6,172.3 458.2,183.2 458.3,182.7 459.7,171.8 "/>
<polygon class="st9" points="459.9,172.3 458.5,183.2 458.2,183.2 459.6,172.3 "/>
<polygon class="st17" points="373.1,162.6 372.2,173.6 371.3,173.3 372.3,162.3 "/>
<polygon class="st0" points="388,160 387,171 372.2,173.6 373.1,162.6 "/>
<polygon class="st24" points="372.4,162.7 371.5,173.7 371.3,173.3 372.3,162.3 "/>
<polygon class="st6" points="532.8,137.5 532.9,137.8 550.5,171.6 550.1,171.6 550.4,172.1 550.7,172 558.1,186.3 557.5,186.4 
	557,185.6 532.3,137.9 532.1,137.6 "/>
<polygon class="st0" points="372.3,162.3 371.3,173.3 354.8,176.2 355.7,165.2 "/>
<polygon class="st21" points="355.7,165.2 354.8,176.2 354,176.1 354.9,165.1 "/>
<polygon class="st36" points="393.2,170.2 392.2,181.1 387.8,171.1 388.8,160.2 "/>
<polygon class="st24" points="392.4,170 391.4,181 387.1,171.2 388.1,160.3 "/>
<polygon class="st24" points="355,165.4 354.1,176.4 354,176.1 354.9,165.1 "/>
<polygon class="st24" points="392.5,170.3 391.5,181.2 391.4,181 392.4,170 "/>
<polygon class="st9" points="393.2,170.2 392.2,181.1 391.5,181.2 392.5,170.3 "/>
<polygon class="st11" points="459.4,171.8 458,182.8 421.8,188.5 423,177.6 "/>
<polygon class="st36" points="423,177.6 421.8,188.5 412.2,167.3 413.4,156.4 "/>
<polygon class="st9" points="423,177.6 421.8,188.5 421.5,188.6 422.7,177.6 "/>
<polygon class="st9" points="459.6,172.3 458.2,183.2 422,189 423.3,178.1 "/>
<polygon class="st24" points="423,178.1 421.7,189.1 421.5,188.6 422.7,177.6 "/>
<polygon class="st6" points="459.7,171.8 459.9,172.3 459.6,172.3 423.3,178.1 423,178.1 422.7,177.6 423,177.6 459.4,171.8 "/>
<polygon class="st9" points="423.3,178.1 422,189 421.7,189.1 423,178.1 "/>
<polygon class="st11" points="392.4,170 391.4,181 376.4,183.4 377.4,172.4 "/>
<polygon class="st37" points="377.4,172.4 376.4,183.4 372.2,173.6 373.1,162.6 "/>
<polygon class="st24" points="376.7,172.5 375.7,183.5 371.5,173.7 372.4,162.7 "/>
<polygon class="st24" points="377.5,172.7 376.6,183.7 376.4,183.4 377.4,172.4 "/>
<polygon class="st21" points="338.9,167.8 338.1,178.8 337.3,178.7 338.1,167.7 "/>
<polygon class="st0" points="354.9,165.1 354,176.1 338.1,178.8 338.9,167.8 "/>
<polygon class="st9" points="392.6,170.5 391.6,181.5 376.6,183.9 377.6,172.9 "/>
<polygon class="st9" points="377.5,172.7 376.6,183.7 375.8,183.8 376.8,172.9 "/>
<polygon class="st24" points="376.8,172.9 375.8,183.8 375.7,183.5 376.7,172.5 "/>
<polygon class="st24" points="338.2,167.9 337.4,178.9 337.3,178.7 338.1,167.7 "/>
<polygon class="st17" points="313.9,171.7 313.2,182.7 312.3,182.5 313,171.4 "/>
<polygon class="st0" points="338.1,167.7 337.3,178.7 313.2,182.7 313.9,171.7 "/>
<polygon class="st37" points="381,180.7 380,191.7 376.6,183.9 377.6,172.9 "/>
<polygon class="st24" points="380.1,180.3 379,191.3 375.8,183.8 376.8,172.9 "/>
<polygon class="st24" points="313.2,171.8 312.5,182.8 312.3,182.5 313,171.4 "/>
<polygon class="st11" points="380.1,180.3 379,191.3 362.3,193.9 363.2,182.9 "/>
<polygon class="st37" points="363.2,182.9 362.3,193.9 354.8,176.2 355.7,165.2 "/>
<polygon class="st24" points="362.5,183.1 361.6,194.1 354.1,176.4 355,165.4 "/>
<polygon class="st24" points="362.6,183.2 361.6,194.2 361.6,194.1 362.5,183.1 "/>
<polygon class="st9" points="363.3,183.1 362.4,194.1 361.6,194.2 362.6,183.2 "/>
<polygon class="st36" points="429.7,192.2 428.5,203.2 422,189 423.3,178.1 "/>
<polygon class="st24" points="428.9,192.1 427.6,203.1 411.5,167.4 412.7,156.5 "/>
<polygon class="st9" points="429.7,192.2 428.5,203.2 427.8,203.3 429,192.3 "/>
<polygon class="st37" points="346.2,185.6 345.3,196.6 338.1,178.8 338.9,167.8 "/>
<polygon class="st11" points="362.5,183.1 361.6,194.1 345.3,196.6 346.2,185.6 "/>
<polygon class="st9" points="346.2,185.7 345.4,196.7 344.6,196.8 345.5,185.8 "/>
<polygon class="st9" points="381,180.7 380,191.7 345.5,197.1 346.4,186.1 "/>
<polygon class="st11" points="428.9,192.1 427.6,203.1 403.5,206.9 404.6,196 "/>
<polygon class="st36" points="404.6,196 403.5,206.9 392.2,181.1 393.2,170.2 "/>
<polygon class="st37" points="353.8,203.9 352.9,214.9 345.5,197.1 346.4,186.1 "/>
<polygon class="st24" points="352.9,203.6 352,214.6 344.6,196.8 345.5,185.8 "/>
<polygon class="st11" points="352.9,203.6 352,214.6 327.5,218.6 328.3,207.5 "/>
<polygon class="st6" points="412.5,156.1 413.2,156 413.4,156.4 423,177.6 422.7,177.6 423,178.1 423.3,178.1 429.7,192.2 
	429,192.3 429.1,192.6 404.9,196.5 404.7,196.1 404,196.3 392.6,170.5 377.6,172.9 381,180.7 346.4,186.1 353.8,203.9 353,204 
	330.5,207.7 329.2,207.9 328.5,208 328.3,207.5 352.9,203.6 345.5,185.8 346.2,185.7 362.5,183.1 363.3,183.1 380.1,180.3 
	376.8,172.9 377.5,172.7 377.4,172.4 392.4,170 392.5,170.3 393.2,170.2 404.6,196 428.9,192.1 412.7,156.5 "/>
<polygon class="st24" points="429.1,192.6 427.9,203.6 427.8,203.3 429,192.3 "/>
<polygon class="st0" points="313,171.4 312.3,182.5 288,186.6 288.5,175.6 "/>
<polygon class="st17" points="288.5,175.6 288,186.6 287.1,186.4 287.7,175.3 "/>
<polygon class="st24" points="287.8,175.7 287.2,186.7 287.1,186.4 287.7,175.3 "/>
<polygon class="st22" points="473.9,201.8 472.4,212.7 458.2,183.2 459.6,172.3 "/>
<polygon class="st24" points="345.5,185.8 344.6,196.8 337.4,178.9 338.2,167.9 "/>
<polygon class="st9" points="474.1,202.3 472.7,213.2 472.4,213.3 473.9,202.4 "/>
<polygon class="st24" points="473.9,202.4 472.4,213.3 472.4,212.7 473.9,201.8 "/>
<polygon class="st37" points="290.3,180.1 289.7,191.1 288,186.6 288.5,175.6 "/>
<polygon class="st0" points="287.7,175.3 287.1,186.4 271,189.2 271.5,178.2 "/>
<polygon class="st27" points="271.5,178.2 271,189.2 270.2,189.2 270.7,178.2 "/>
<polygon class="st24" points="270.8,178.3 270.3,189.4 270.2,189.2 270.7,178.2 "/>
<polygon class="st9" points="404.7,196.1 403.6,207.1 402.9,207.2 404,196.3 "/>
<polygon class="st24" points="404,196.3 402.9,207.2 391.6,181.5 392.6,170.5 "/>
<polygon class="st9" points="429.1,192.6 427.9,203.6 403.7,207.4 404.9,196.5 "/>
<polygon class="st24" points="404.9,196.5 403.7,207.4 403.6,207.1 404.7,196.1 "/>
<polygon class="st24" points="404.1,196.6 403,207.6 402.9,207.2 404,196.3 "/>
<g>
	<g>
		<defs>
			<path id="SVGID_00000098202050619348637810000001975353212608045440_" d="M292.4,185.5l-0.6,11.1c-0.2-0.4-0.4-0.9-0.5-1.4
				l-0.5-1.4l-0.5-1.4l-0.5-1.4l0.6-11l0.5,1.4l0.5,1.4l0.5,1.4L292.4,185.5z"/>
		</defs>
		<clipPath id="SVGID_00000077314692153721215970000014757125212801818534_">
			<use xlink:href="#SVGID_00000098202050619348637810000001975353212608045440_"  style="overflow:visible;"/>
		</clipPath>
		<g style="clip-path:url(#SVGID_00000077314692153721215970000014757125212801818534_);">
			<g>
				<path class="st14" d="M292.4,185.5l-0.6,11.1c-0.2-0.4-0.4-0.9-0.5-1.4l-0.5-1.4l-0.5-1.4l-0.5-1.4l0.6-11l0.5,1.4l0.5,1.4
					l0.5,1.4L292.4,185.5"/>
			</g>
		</g>
	</g>
</g>
<polygon class="st37" points="292.4,185.5 291.8,196.6 289.7,191.1 290.3,180.1 "/>
<polygon class="st0" points="270.7,178.2 270.2,189.2 254.1,191.9 254.5,180.8 "/>
<polygon class="st27" points="254.5,180.8 254.1,191.9 253.4,191.9 253.7,180.8 "/>
<polygon class="st24" points="253.8,180.9 253.4,192 253.4,191.9 253.7,180.8 "/>
<polygon class="st0" points="253.7,180.8 253.4,191.9 251.7,192.3 252.1,181.2 "/>
<polygon class="st12" points="473.6,201.8 472.1,212.8 435.6,218.8 436.9,207.8 "/>
<polygon class="st36" points="436.9,207.8 435.6,218.8 428.5,203.2 429.7,192.2 "/>
<polygon class="st9" points="473.9,202.4 472.4,213.3 435.1,219.4 436.4,208.4 "/>
<polygon class="st6" points="429.7,192.2 436.9,207.8 473.6,201.8 473.9,201.8 474.1,202.3 473.9,202.4 436.4,208.4 429.1,192.6 
	429,192.3 "/>
<polygon class="st24" points="436.4,208.4 435.1,219.4 427.9,203.6 429.1,192.6 "/>
<polygon class="st37" points="296,194.8 295.4,205.9 291.8,196.6 292.4,185.5 "/>
<g>
	<g>
		<defs>
			<path id="SVGID_00000051361394650017653170000002503739446177658758_" d="M296.5,196.2l-0.6,11c0-0.1,0-0.2-0.1-0.3
				c0-0.1-0.1-0.2-0.1-0.3c0-0.1-0.1-0.2-0.2-0.4l-0.2-0.4l0.6-11.1l0.2,0.4c0,0.1,0.1,0.2,0.1,0.4s0.1,0.2,0.1,0.3
				C296.5,195.9,296.5,196.1,296.5,196.2z"/>
		</defs>
		<clipPath id="SVGID_00000087411628068954693720000014003621386676910468_">
			<use xlink:href="#SVGID_00000051361394650017653170000002503739446177658758_"  style="overflow:visible;"/>
		</clipPath>
		<g style="clip-path:url(#SVGID_00000087411628068954693720000014003621386676910468_);">
			<g>
				<path class="st14" d="M296.5,196.2l-0.6,11c0-0.1,0-0.2-0.1-0.3c0-0.1-0.1-0.2-0.1-0.3c0-0.1-0.1-0.2-0.2-0.4l-0.2-0.4l0.6-11.1
					l0.2,0.4c0,0.1,0.1,0.2,0.1,0.4s0.1,0.2,0.1,0.3C296.5,195.9,296.5,196,296.5,196.2"/>
			</g>
		</g>
	</g>
</g>
<polygon class="st37" points="296.5,196.2 296,207.2 295.4,205.9 296,194.8 "/>
<polygon class="st24" points="296,196.7 295.4,207.8 287.2,186.7 287.8,175.7 "/>
<polygon class="st9" points="296.3,196.6 295.7,207.7 295.4,207.8 296,196.7 "/>
<polygon class="st9" points="353.8,203.9 352.9,214.9 352.2,215.1 353,204 "/>
<polygon class="st37" points="302.6,211.6 301.9,222.7 296,207.2 296.5,196.2 "/>
<polygon class="st24" points="296.5,197.2 295.9,208.2 295.7,207.7 296.3,196.6 "/>
<polygon class="st9" points="296.5,197.2 295.9,208.2 295.6,208.3 296.2,197.2 "/>
<polygon class="st22" points="483.1,221.7 481.5,232.7 472.4,213.3 473.9,202.4 "/>
<polygon class="st11" points="296,196.7 295.4,207.8 279,210.4 279.5,199.3 "/>
<polygon class="st9" points="296.2,197.2 295.6,208.3 281.2,210.5 281.8,199.5 "/>
<polygon class="st37" points="279.5,199.3 279,210.4 271,189.2 271.5,178.2 "/>
<polygon class="st9" points="281.8,199.5 281.2,210.5 280,210.7 280.5,199.7 "/>
<g>
	<g>
		<defs>
			<polygon id="SVGID_00000070824441149269282210000002754814608257365156_" points="281.8,199.5 281.2,210.6 281,210.6 
				280.9,210.6 280.7,210.6 280.5,210.6 281.1,199.5 281.2,199.5 281.4,199.5 281.6,199.5 			"/>
		</defs>
		<clipPath id="SVGID_00000057840635738750009580000000089421568423157422_">
			<use xlink:href="#SVGID_00000070824441149269282210000002754814608257365156_"  style="overflow:visible;"/>
		</clipPath>
		<g style="clip-path:url(#SVGID_00000057840635738750009580000000089421568423157422_);">
			<g>
				<path class="st41" d="M281.8,199.5l-0.5,11.1H281h-0.2h-0.2h-0.2l0.5-11.1h0.2h0.2h0.2H281.8"/>
			</g>
		</g>
	</g>
</g>
<polygon class="st24" points="279.6,199.4 279,210.5 279,210.4 279.5,199.3 "/>
<polygon class="st24" points="278.8,199.4 278.2,210.5 270.3,189.4 270.8,178.3 "/>
<g>
	<g>
		<defs>
			<polygon id="SVGID_00000058587702530358335750000005841887705795442581_" points="281.1,199.6 280.5,210.7 280.4,210.7 
				280.2,210.7 280.1,210.7 280,210.7 280.5,199.6 280.7,199.6 280.8,199.6 281,199.6 			"/>
		</defs>
		<clipPath id="SVGID_00000128460172593650723900000009766957958820383158_">
			<use xlink:href="#SVGID_00000058587702530358335750000005841887705795442581_"  style="overflow:visible;"/>
		</clipPath>
		<g style="clip-path:url(#SVGID_00000128460172593650723900000009766957958820383158_);">
			<g>
				<path class="st41" d="M281.1,199.6l-0.5,11.1h-0.1h-0.1h-0.1H280l0.5-11.1h0.1h0.1h0.1H281.1"/>
			</g>
		</g>
	</g>
</g>
<polygon class="st9" points="279.6,199.4 279,210.5 278.3,210.6 278.8,199.5 "/>
<polygon class="st24" points="278.8,199.5 278.3,210.6 278.2,210.5 278.8,199.4 "/>
<polygon class="st11" points="278.8,199.4 278.2,210.5 262,213.1 262.4,202 "/>
<polygon class="st9" points="280.5,199.7 280,210.7 264.2,213.2 264.7,202.2 "/>
<path class="st25" d="M281.1,199.6h-0.1h-0.1h-0.1h-0.1l1.3-0.2h-0.2h-0.2h-0.2L281.1,199.6z"/>
<polygon class="st6" points="271.4,178.1 271.5,178.2 279.5,199.3 279.6,199.4 278.8,199.5 278.8,199.4 270.8,178.3 270.7,178.2 "/>
<polygon class="st9" points="353,204 352.2,215.1 329.7,218.8 330.5,207.7 "/>
<polygon class="st37" points="328.3,207.5 327.5,218.6 313.2,182.7 313.9,171.7 "/>
<polygon class="st9" points="330.5,207.7 329.7,218.8 328.5,219 329.2,207.9 "/>
<g>
	<g>
		<defs>
			<polygon id="SVGID_00000181077697836086556920000013920414392043995302_" points="330.5,207.7 329.7,218.7 329.6,218.7 
				329.4,218.7 329.2,218.7 329,218.7 329.8,207.7 330,207.7 330.2,207.7 330.3,207.7 			"/>
		</defs>
		<clipPath id="SVGID_00000078044817506182010850000005425097773939417267_">
			<use xlink:href="#SVGID_00000181077697836086556920000013920414392043995302_"  style="overflow:visible;"/>
		</clipPath>
		<g style="clip-path:url(#SVGID_00000078044817506182010850000005425097773939417267_);">
			<g>
				<path class="st41" d="M330.5,207.7l-0.8,11h-0.2h-0.2h-0.2H329l0.8-11h0.2h0.2h0.2H330.5"/>
			</g>
		</g>
	</g>
</g>
<polygon class="st24" points="327.6,207.6 326.8,218.7 312.5,182.8 313.2,171.8 "/>
<g>
	<g>
		<defs>
			<polygon id="SVGID_00000144339692872408412160000013929887640957303478_" points="329.8,207.8 329,218.8 328.9,218.8 
				328.7,218.8 328.4,218.8 329.2,207.8 329.5,207.8 329.6,207.8 			"/>
		</defs>
		<clipPath id="SVGID_00000180349437179777533000000007065580819134052744_">
			<use xlink:href="#SVGID_00000144339692872408412160000013929887640957303478_"  style="overflow:visible;"/>
		</clipPath>
		<g style="clip-path:url(#SVGID_00000180349437179777533000000007065580819134052744_);">
			<g>
				<path class="st41" d="M329.8,207.8l-0.8,11h-0.1h-0.3l0.8-11h0.3H329.8"/>
				<path class="st45" d="M329.4,207.9l-0.8,11h-0.1l0.8-11H329.4"/>
			</g>
		</g>
	</g>
</g>
<polygon class="st9" points="329.2,207.9 328.5,219 327.7,219.1 328.5,208 "/>
<polygon class="st37" points="374.3,253 373.3,264 352.9,214.9 353.8,203.9 "/>
<polygon class="st24" points="373.6,253.1 372.5,264.1 352.2,215.1 353.1,204.1 "/>
<path class="st25" d="M329.8,207.8h-0.1h-0.1h-0.3l1.3-0.2h-0.2h-0.2H330L329.8,207.8z"/>
<polygon class="st24" points="328.5,208 327.7,219.1 327.5,218.6 328.3,207.5 "/>
<polygon class="st24" points="327.8,208.1 327,219.2 326.8,218.7 327.6,207.6 "/>
<polygon class="st37" points="262.4,202 262,213.1 254.1,191.9 254.5,180.8 "/>
<polygon class="st9" points="264.7,202.2 264.2,213.2 263,213.4 263.4,202.4 "/>
<g>
	<g>
		<defs>
			<polygon id="SVGID_00000117656882569972480360000016272016170631204764_" points="264.7,202.1 264.2,213.2 264,213.2 
				263.9,213.2 263.7,213.2 263.5,213.2 264,202.3 264.2,202.3 264.4,202.3 264.5,202.3 			"/>
		</defs>
		<clipPath id="SVGID_00000132767300968125137470000010320260943656726146_">
			<use xlink:href="#SVGID_00000117656882569972480360000016272016170631204764_"  style="overflow:visible;"/>
		</clipPath>
		<g style="clip-path:url(#SVGID_00000132767300968125137470000010320260943656726146_);">
			<g>
				<path class="st41" d="M264.7,202.1l-0.5,11.1H264h-0.2h-0.2h-0.2l0.5-11h0.2h0.2h0.2h0.2"/>
			</g>
		</g>
	</g>
</g>
<polygon class="st24" points="262.5,202.1 262,213.2 262,213.1 262.4,202 "/>
<polygon class="st24" points="261.6,202.1 261.2,213.2 253.4,192 253.8,180.9 "/>
<g>
	<g>
		<defs>
			<polygon id="SVGID_00000026140655877593769330000006714292744873418683_" points="264,202.3 263.6,213.4 263.4,213.4 
				263.3,213.4 263.1,213.4 263,213.4 263.4,202.3 263.6,202.3 263.7,202.3 263.9,202.3 			"/>
		</defs>
		<clipPath id="SVGID_00000000196742555497650230000011582039424200918149_">
			<use xlink:href="#SVGID_00000026140655877593769330000006714292744873418683_"  style="overflow:visible;"/>
		</clipPath>
		<g style="clip-path:url(#SVGID_00000000196742555497650230000011582039424200918149_);">
			<g>
				<path class="st41" d="M264,202.3l-0.4,11.1h-0.1h-0.1h-0.1H263l0.4-11.1h0.1h0.1h0.1H264"/>
			</g>
		</g>
	</g>
</g>
<polygon class="st24" points="261.7,202.2 261.3,213.3 261.2,213.2 261.6,202.1 "/>
<polygon class="st9" points="262.5,202.1 262,213.2 261.3,213.3 261.7,202.2 "/>
<polygon class="st0" points="252.1,181.2 251.7,192.3 233.8,212.4 234.1,201.3 "/>
<polygon class="st11" points="261.6,202.1 261.2,213.2 235.5,217.2 235.8,206.1 "/>
<polygon class="st9" points="263.4,202.4 263,213.4 235.7,217.8 236,206.7 "/>
<path class="st25" d="M264,202.3h-0.1h-0.1h-0.1h-0.1l1.3-0.2h-0.2h-0.2h-0.2L264,202.3z"/>
<polygon class="st11" points="327.6,207.6 326.8,218.7 301.9,222.7 302.6,211.6 "/>
<polygon class="st9" points="327.8,208.1 327,219.2 304.1,222.9 304.7,211.8 "/>
<polygon class="st9" points="304.7,211.8 304.1,222.9 302.8,223.1 303.4,212 "/>
<g>
	<g>
		<defs>
			<polygon id="SVGID_00000047046918674535579860000010713476545721479821_" points="304.7,211.8 304.1,222.9 303.9,222.9 
				303.7,222.9 303.5,222.9 303.3,222.9 304,211.8 304.2,211.8 304.4,211.8 304.5,211.8 			"/>
		</defs>
		<clipPath id="SVGID_00000093893532456412944850000009494301080258312886_">
			<use xlink:href="#SVGID_00000047046918674535579860000010713476545721479821_"  style="overflow:visible;"/>
		</clipPath>
		<g style="clip-path:url(#SVGID_00000093893532456412944850000009494301080258312886_);">
			<g>
				<path class="st41" d="M304.7,211.8l-0.7,11.1h-0.2h-0.2h-0.2h-0.2l0.6-11.1h0.2h0.2h0.2H304.7"/>
			</g>
		</g>
	</g>
</g>
<polygon class="st24" points="301.8,211.7 301.2,222.8 295.6,208.3 296.2,197.2 "/>
<g>
	<g>
		<defs>
			<polygon id="SVGID_00000160913486632290726960000009858210284303203975_" points="304,212 303.4,223 303.2,223 303.1,223 
				302.9,223 302.8,223 303.4,212 303.6,212 303.7,212 303.9,212 			"/>
		</defs>
		<clipPath id="SVGID_00000080168157993462925690000007093237399681577126_">
			<use xlink:href="#SVGID_00000160913486632290726960000009858210284303203975_"  style="overflow:visible;"/>
		</clipPath>
		<g style="clip-path:url(#SVGID_00000080168157993462925690000007093237399681577126_);">
			<g>
				<path class="st41" d="M304,212l-0.6,11.1h-0.1h-0.1H303h-0.1l0.6-11.1h0.1h0.1h0.1H304"/>
				<path class="st45" d="M303.6,212l-0.6,11.1h-0.1l0.6-11.1H303.6"/>
			</g>
		</g>
	</g>
</g>
<path class="st25" d="M304,212h-0.1h-0.1h-0.1h-0.1l1.3-0.2h-0.2h-0.2h-0.2L304,212z"/>
<polygon class="st6" points="302.8,212.1 302.6,211.6 327.6,207.6 327.8,208.1 304.7,211.8 303.4,212 "/>
<polygon class="st24" points="302.8,212.1 302.1,223.2 301.9,222.7 302.6,211.6 "/>
<polygon class="st9" points="303.4,212 302.8,223.1 302.1,223.2 302.8,212.1 "/>
<polygon class="st11" points="301.8,211.7 301.2,222.8 300.1,223 300.8,211.9 "/>
<polygon class="st24" points="302,212.2 301.4,223.3 301.2,222.8 301.8,211.7 "/>
<g>
	<g>
		<defs>
			<polygon id="SVGID_00000008148268922594235780000009437940940063739312_" points="300.8,211.9 300.1,223 299.9,223 299.8,223 
				299.7,223 299.6,223 299.6,223 299.5,223 300.1,211.9 300.2,211.9 300.3,211.9 300.4,211.9 300.4,211.9 300.8,211.9 			"/>
		</defs>
		<clipPath id="SVGID_00000067914744996640274470000017502483447067810440_">
			<use xlink:href="#SVGID_00000008148268922594235780000009437940940063739312_"  style="overflow:visible;"/>
		</clipPath>
		<g style="clip-path:url(#SVGID_00000067914744996640274470000017502483447067810440_);">
			<g>
				<path class="st41" d="M300.8,211.9l-0.6,11.1h-0.2h-0.1h-0.1h-0.1h-0.1h-0.1l0.6-11.1h0.1h0.1h0.1h0.1L300.8,211.9"/>
			</g>
		</g>
	</g>
</g>
<polygon class="st11" points="300.8,211.9 300.1,223 299.5,223.1 300.1,212 "/>
<polygon class="st37" points="235.8,206.1 235.5,217.2 233.8,212.4 234.1,201.3 "/>
<polygon class="st51" points="483.1,221.7 481.5,232.7 470.5,247.6 472,236.6 "/>
<polygon class="st24" points="235.6,206.7 235.3,217.8 235.1,217.3 235.4,206.2 "/>
<polygon class="st1" points="235.8,206.1 235.5,217.2 235.3,217.8 235.6,206.7 "/>
<polygon class="st6" points="296.3,196.6 296.5,197.2 296.2,197.2 281.8,199.5 280.5,199.7 264.7,202.2 263.4,202.4 236,206.7 
	235.6,206.7 235.4,206.2 235.8,206.1 261.6,202.1 261.7,202.2 262.5,202.1 262.4,202 278.8,199.4 278.8,199.5 279.6,199.4 
	279.5,199.3 296,196.7 "/>
<polygon class="st9" points="236,206.7 235.7,217.8 235.3,217.8 235.6,206.7 "/>
<polygon class="st36" points="426,244.3 424.8,255.3 403.7,207.4 404.9,196.5 "/>
<polygon class="st12" points="472,236.6 470.5,247.6 424.8,255.3 426,244.3 "/>
<polygon class="st24" points="425.3,244.4 424,255.4 403,207.6 404.1,196.6 "/>
<polygon class="st9" points="426.1,244.5 424.8,255.5 424.1,255.6 425.4,244.6 "/>
<polygon class="st24" points="425.4,244.6 424.1,255.6 424,255.4 425.3,244.4 "/>
<polygon class="st11" points="300.1,212 299.5,223.1 240.9,232.5 241.3,221.4 "/>
<polygon class="st37" points="241.3,221.4 240.9,232.5 235.7,217.8 236,206.7 "/>
<polygon class="st9" points="302,212.2 301.4,223.3 241.1,233 241.5,221.9 "/>
<polygon class="st24" points="241.1,222 240.8,233.1 240.6,232.5 240.9,221.4 "/>
<polygon class="st32" points="241.3,221.4 240.9,232.5 240.8,233.1 241.1,222 "/>
<polygon class="st9" points="241.5,221.9 241.1,233 240.8,233.1 241.1,222 "/>
<polygon class="st37" points="322,261.7 321.3,272.8 302.1,223.2 302.8,212.1 "/>
<polygon class="st24" points="310.3,233.2 309.6,244.3 301.4,223.3 302,212.2 "/>
<polygon class="st12" points="310.2,233.3 309.5,244.3 308.8,244.5 309.5,233.4 "/>
<g>
	<g>
		<defs>
			<path id="SVGID_00000173161589041207293480000004295536133291681452_" d="M308.8,244.5h-0.2h-0.1h-0.1c0.2-3.7,0.5-7.4,0.7-11.1
				h0.1h0.1h0.1h0.1C309.3,236.7,309,241.1,308.8,244.5z"/>
		</defs>
		<clipPath id="SVGID_00000155837042697726174810000016051936516361531026_">
			<use xlink:href="#SVGID_00000173161589041207293480000004295536133291681452_"  style="overflow:visible;"/>
		</clipPath>
		<g style="clip-path:url(#SVGID_00000155837042697726174810000016051936516361531026_);">
			<g>
				<path class="st41" d="M309.5,233.4l-0.7,11.1h-0.2h-0.1h-0.1h-0.1h-0.1H308h-0.1l0.7-11.1h0.1h0.1h0.1h0.1h0.1h0.1h0.1
					L309.5,233.4"/>
			</g>
		</g>
	</g>
</g>
<g>
	<g>
		<defs>
			<path id="SVGID_00000119103559262281074010000001815877017822548899_" d="M308.4,244.5h-0.1h-0.1H308h-0.1l0.7-11.1h0.1h0.1h0.1
				h0.1c-0.1,1.9-0.2,3.7-0.3,5.5S308.5,242.7,308.4,244.5z"/>
		</defs>
		<clipPath id="SVGID_00000062176314675248409680000008128002377956590742_">
			<use xlink:href="#SVGID_00000119103559262281074010000001815877017822548899_"  style="overflow:visible;"/>
		</clipPath>
		<g style="clip-path:url(#SVGID_00000062176314675248409680000008128002377956590742_);">
			<g>
				<path class="st41" d="M309.5,233.4l-0.7,11.1h-0.2h-0.1h-0.1h-0.1h-0.1H308h-0.1l0.7-11.1h0.1h0.1h0.1h0.1h0.1h0.1h0.1
					L309.5,233.4"/>
			</g>
		</g>
	</g>
</g>
<polygon class="st12" points="309.5,233.4 308.8,244.5 307.9,244.6 308.5,233.5 "/>
<polygon class="st24" points="310.4,233.8 309.7,244.9 309.6,244.3 310.3,233.2 "/>
<polygon class="st12" points="308.5,233.5 307.9,244.6 274,250.2 274.5,239.1 "/>
<polygon class="st9" points="276.2,239 275.7,250.1 274.9,250.2 275.4,239.1 "/>
<polygon class="st9" points="310.5,233.8 309.8,244.9 275.8,250.4 276.3,239.4 "/>
<polygon class="st24" points="276.3,239.4 275.8,250.4 275.7,250.1 276.2,239 "/>
<g>
	<g>
		<defs>
			<path id="SVGID_00000178164088197476713800000002458644162866785939_" d="M274,250.2h-0.1h-0.1h-0.1h-0.1l0.5-11.1h0.1h0.1h0.2
				C274.4,242.4,274.2,246.8,274,250.2z"/>
		</defs>
		<clipPath id="SVGID_00000166672166302588639910000002472513998665431688_">
			<use xlink:href="#SVGID_00000178164088197476713800000002458644162866785939_"  style="overflow:visible;"/>
		</clipPath>
		<g style="clip-path:url(#SVGID_00000166672166302588639910000002472513998665431688_);">
			<g>
				<polyline class="st45" points="274.5,239.1 274,250.2 274,250.2 274,250.2 274,250.2 274,250.2 274.5,239.1 274.5,239.1 
					274.5,239.1 274.5,239.1 274.5,239.1 				"/>
				<path class="st41" d="M274.5,239.1l-0.5,11.1h-0.1h-0.1h-0.1h-0.1h-0.1h-0.1h-0.1h-0.1l0.5-11.1h0.1h0.1h0.1h0.1h0.1h0.1
					L274.5,239.1"/>
			</g>
		</g>
	</g>
</g>
<polygon class="st24" points="275.5,239.5 275,250.6 274.9,250.2 275.4,239.1 "/>
<g>
	<g>
		<defs>
			<polygon id="SVGID_00000070825849164413443820000012328300078517007497_" points="273.6,250.2 273.5,250.2 273.3,250.2 
				273.2,250.2 273.1,250.2 273.6,239.1 273.7,239.1 273.8,239.1 274,239.1 274.1,239.1 			"/>
		</defs>
		<clipPath id="SVGID_00000041283899858018240400000003540209272097130148_">
			<use xlink:href="#SVGID_00000070825849164413443820000012328300078517007497_"  style="overflow:visible;"/>
		</clipPath>
		<g style="clip-path:url(#SVGID_00000041283899858018240400000003540209272097130148_);">
			<g>
				<path class="st41" d="M274.5,239.1l-0.5,11.1h-0.1h-0.1h-0.1h-0.1h-0.1h-0.1h-0.1h-0.1l0.5-11.1h0.1h0.1h0.1h0.1h0.1h0.1
					L274.5,239.1"/>
			</g>
		</g>
	</g>
</g>
<polygon class="st12" points="274.5,239.1 274,250.2 273.1,250.3 273.6,239.2 "/>
<polygon class="st12" points="425.3,244.4 424,255.4 373.3,264 374.3,253 "/>
<polygon class="st9" points="374.3,253 373.3,264 372.5,264.1 373.6,253.1 "/>
<polygon class="st6" points="353.1,204.1 353.8,203.9 374.3,253 373.6,253.1 "/>
<polygon class="st37" points="249.1,243.2 248.7,254.3 241.1,233 241.5,221.9 "/>
<polygon class="st12" points="273.6,239.2 273.1,250.3 248.7,254.3 249.1,243.2 "/>
<polygon class="st56" points="249.1,243.2 248.7,254.3 248.6,254.9 248.9,243.8 "/>
<polygon class="st6" points="310.2,233.3 310.5,233.8 276.3,239.4 276.2,239 275.4,239.1 275.5,239.5 249.3,243.8 248.9,243.8 
	248.7,243.3 249.1,243.2 273.6,239.2 274.5,239.1 308.5,233.5 309.5,233.4 "/>
<polygon class="st9" points="275.5,239.5 275,250.6 248.9,254.9 249.3,243.8 "/>
<polygon class="st9" points="249.3,243.8 248.9,254.9 248.6,254.9 248.9,243.8 "/>
<polygon class="st24" points="248.9,243.8 248.6,254.9 248.4,254.4 248.7,243.3 "/>
<polygon class="st12" points="373.6,253.1 372.5,264.1 347.5,268.4 348.3,257.3 "/>
<polygon class="st37" points="348.3,257.3 347.5,268.4 327.7,219.1 328.5,208 "/>
<polygon class="st24" points="347.6,257.4 346.7,268.5 327,219.2 327.8,208.1 "/>
<polygon class="st24" points="347.7,257.7 346.8,268.8 346.7,268.5 347.6,257.4 "/>
<polygon class="st9" points="348.5,257.6 347.6,268.7 346.8,268.8 347.7,257.7 "/>
<polygon class="st6" points="313.7,171.3 313.9,171.7 328.3,207.5 328.5,208 348.3,257.3 348.5,257.6 347.7,257.7 347.6,257.4 
	327.8,208.1 327.6,207.6 313.2,171.8 313,171.4 "/>
<polygon class="st37" points="282.3,255.6 281.8,266.7 275.8,250.4 276.3,239.4 "/>
<polygon class="st24" points="281.5,255.5 281,266.6 275,250.6 275.5,239.5 "/>
<polygon class="st12" points="347.6,257.4 346.7,268.5 321.3,272.8 322,261.7 "/>
<polygon class="st24" points="321.3,261.9 320.6,273 309.7,244.9 310.4,233.8 "/>
<polygon class="st0" points="322,261.7 321.3,272.8 320.6,273 321.3,261.9 "/>
<polygon class="st37" points="256.6,264.2 256.2,275.3 248.9,254.9 249.3,243.8 "/>
<polygon class="st57" points="281.5,255.5 281,266.6 272.1,280.9 272.6,269.8 "/>
<polygon class="st27" points="282.3,255.6 281.8,266.7 273,280.8 273.5,269.7 "/>
<polygon class="st12" points="321.3,261.8 320.5,272.9 273.1,280.9 273.6,269.8 "/>
<g>
	<g>
		<defs>
			<polygon id="SVGID_00000016789755760455054810000004326884210962666930_" points="273.6,269.8 273.1,280.9 273.1,280.9 
				273.1,280.9 273.1,280.9 273.1,280.9 273.6,269.8 273.6,269.8 273.6,269.8 			"/>
		</defs>
		<clipPath id="SVGID_00000135664256063453293140000009757392747304282021_">
			<use xlink:href="#SVGID_00000016789755760455054810000004326884210962666930_"  style="overflow:visible;"/>
		</clipPath>
		<g style="clip-path:url(#SVGID_00000135664256063453293140000009757392747304282021_);">
			<g>
				<path class="st14" d="M273.6,269.8l-0.5,11.1l0,0l0,0l0,0l0,0L273.6,269.8L273.6,269.8L273.6,269.8L273.6,269.8L273.6,269.8"/>
			</g>
		</g>
	</g>
</g>
<polygon class="st27" points="273.5,269.7 273,280.8 273,280.9 273.5,269.8 "/>
<polygon class="st31" points="272.6,269.8 272.1,280.9 256.2,275.3 256.6,264.2 "/>
<polygon class="st27" points="273.5,269.8 273,280.9 272.7,281.3 273.2,270.2 "/>
<polygon class="st6" points="276.2,239 276.3,239.4 282.3,255.6 273.5,269.7 273.5,269.8 273.2,270.2 272.5,269.9 272.6,269.8 
	281.5,255.5 275.5,239.5 275.4,239.1 "/>
<polygon class="st1" points="273.2,270.2 272.7,281.3 272,281 272.5,269.9 "/>
<path class="st6" d="M454.1,159.1l-16.9-6.9l-185.7,28.5l-18.3,20.5l22.6,63.4l16.9,5.9l199.8-33.4l11.3-15.3L454.1,159.1z
	 M472,236.6l-45.9,7.8l-0.8-0.1l-51,8.5l-0.8,0.1l-25.1,4.5l-0.9-0.2l-25.5,4.4h-0.8l-48,8.3l-0.7-0.3l-16-5.6l-7.7-20.4l0.1-0.6
	l-8-21.2l0.1-0.6l-5.6-14.7l0.2-0.6l-1.7-4.8l18-20.1l1.7-0.4h0.8l16.2-2.6h0.8l16.2-2.9l0.9,0.2l24.5-4l0.9,0.2l24.2-4l0.8,0.2
	l16-2.7l0.8,0.2l16.5-2.9l0.9,0.3L388,160l0.8,0.1l23.7-4l0.9,0.3l23.8-3.6l16.3,6.6l6.2,12.4v0.5l14.3,29.5v0.6l9.2,19.4L472,236.6
	"/>
<polygon class="st6" points="388.7,159.9 388.8,160.2 393.2,170.2 392.5,170.3 392.4,170 388.1,160.3 388,160 "/>
<polygon class="st6" points="373,162.2 373.1,162.6 377.4,172.4 377.5,172.7 376.8,172.9 376.7,172.5 372.4,162.7 372.3,162.3 "/>
<polygon class="st59" points="743,220.9 740.2,231.7 739.5,231.4 742.3,220.6 "/>
<path class="st25" d="M742.3,220.6l0.2,0.1l0.2,0.1l0.2,0.1l0.2,0.1L742.3,220.6z"/>
<polygon class="st60" points="24.8,101.7 25.5,112.8 1.7,137.2 0.8,126 "/>
<polygon class="st17" points="743.1,221.5 740.3,232.3 729.6,227.9 732.3,217.2 "/>
<polygon class="st8" points="930.3,246.2 926.6,256.8 852.9,148 856,137.4 "/>
<polygon class="st27" points="930.8,245.9 927.1,256.5 926.6,256.8 930.3,246.2 "/>
<polygon class="st21" points="714.6,220.2 711.9,231 711.1,230.8 713.8,220.1 "/>
<polygon class="st9" points="732.3,217.2 729.6,227.9 711.9,231 714.6,220.2 "/>
<polygon class="st16" points="713.9,220.3 711.3,231.1 711.1,230.8 713.8,220.1 "/>
<polygon class="st16" points="714.3,221 711.6,231.8 711.3,231.1 713.9,220.3 "/>
<polygon class="st19" points="727.4,242.1 724.7,252.8 711.9,231 714.6,220.2 "/>
<polygon class="st16" points="715,222.2 712.3,232.9 711.6,231.8 714.3,221 "/>
<path class="st25" d="M715,222.2l-0.2-0.3l-0.2-0.3l-0.2-0.3c-0.1-0.1-0.1-0.2-0.2-0.3L715,222.2z"/>
<g>
	<g>
		<defs>
			<path id="SVGID_00000026149572575360555430000004410354653990194873_" d="M715,222.2l-2.7,10.8c-0.1-0.1-0.1-0.2-0.2-0.3
				l-0.2-0.3c-0.1-0.1-0.1-0.2-0.2-0.3l-0.2-0.3l2.7-10.8c0,0.1,0.1,0.2,0.2,0.3l0.2,0.3l0.2,0.3L715,222.2z"/>
		</defs>
		<clipPath id="SVGID_00000028320290963592966990000017585135307471197862_">
			<use xlink:href="#SVGID_00000026149572575360555430000004410354653990194873_"  style="overflow:visible;"/>
		</clipPath>
		<g style="clip-path:url(#SVGID_00000028320290963592966990000017585135307471197862_);">
			<g>
				<path class="st14" d="M715,222.2l-2.7,10.8c-0.1-0.1-0.1-0.2-0.2-0.3l-0.2-0.3c-0.1-0.1-0.1-0.2-0.2-0.3l-0.2-0.3l2.7-10.8
					c0,0.1,0.1,0.2,0.2,0.3l0.2,0.3l0.2,0.3L715,222.2"/>
			</g>
		</g>
	</g>
</g>
<polygon class="st16" points="746.3,226.5 743.5,237.3 740.3,232.3 743.1,221.5 "/>
<polygon class="st1" points="747,226.8 744.2,237.6 743.5,237.3 746.3,226.5 "/>
<polygon class="st1" points="747,226.8 744.2,237.6 743.8,238.1 746.6,227.3 "/>
<polygon class="st37" points="226.9,162.9 226.7,174 196.6,89.1 196.6,78.1 "/>
<polygon class="st4" points="740.8,85.6 738.2,96.2 226.7,174 226.9,162.9 "/>
<polygon class="st24" points="226.3,163.5 226.1,174.6 195.8,89.2 196.4,78.1 "/>
<polygon class="st0" points="741.7,86 739.1,96.6 226.1,174.6 226.3,163.5 "/>
<polygon class="st6" points="196.4,78.1 196.6,78.1 226.9,162.9 740.8,85.6 732.3,72.4 745,53 726.4,24.7 699.7,9.1 726.9,24.5 
	745.7,53.1 733,72.4 741.7,86 226.3,163.5 "/>
<polygon class="st24" points="215.5,164.5 215.3,175.6 204,143.4 204.1,132.4 "/>
<polygon class="st9" points="672,227 669.6,237.8 668.9,237.9 671.3,227.1 "/>
<polygon class="st7" points="672.3,227.4 669.8,238.3 669.6,237.8 672,227 "/>
<polygon class="st9" points="713.8,220.1 711.1,230.8 669.8,238.3 672.3,227.4 "/>
<polygon class="st7" points="671.6,227.6 669.1,238.4 668.9,237.9 671.3,227.1 "/>
<polygon class="st6" points="346.2,185.7 345.5,185.8 338.2,167.9 338.1,167.7 338.8,167.6 338.9,167.8 346.2,185.6 "/>
<polygon class="st4" points="215.5,164.5 215.3,175.6 185.5,180.2 185.6,169 "/>
<polygon class="st0" points="216.5,164.9 216.2,176 186.4,180.6 186.5,169.4 "/>
<polygon class="st6" points="557,185.6 557.5,186.4 558.1,186.3 573.7,216.3 575.4,219.5 575.5,219.8 574.8,219.9 574.7,219.6 
	557.3,186.1 527.8,190.8 527.7,190.6 526.9,190.7 527.1,190.9 497.7,195.7 497.5,195.7 497.2,195.2 497.5,195.2 "/>
<polygon class="st29" points="746.2,226.6 743.4,237.4 733.1,251.4 735.9,240.6 "/>
<polygon class="st1" points="746.6,227.3 743.8,238.1 733.6,251.8 736.4,241.1 "/>
<polygon class="st6" points="288.4,175.2 288.5,175.6 290.3,180.1 292.4,185.5 296,194.8 296.5,196.2 302.6,211.6 302.8,212.1 
	322,261.7 321.3,261.9 310.4,233.8 310.3,233.2 302,212.2 301.8,211.7 296.2,197.2 296.5,197.2 296.3,196.6 296,196.7 287.8,175.7 
	287.7,175.3 "/>
<path class="st25" d="M290.3,180.1l0.5,1.4l0.5,1.4l0.5,1.4l0.5,1.4L290.3,180.1z"/>
<polygon class="st62" points="735.9,240.6 733.1,251.4 724.7,252.8 727.4,242.1 "/>
<polygon class="st16" points="726.7,242.2 724,253 712.3,232.9 715,222.2 "/>
<polygon class="st16" points="727.7,242.5 724.9,253.3 724.7,252.8 727.4,242.1 "/>
<polygon class="st16" points="727,242.6 724.2,253.4 724,253 726.7,242.2 "/>
<polygon class="st62" points="726.7,242.2 724,253 682.2,260.3 684.8,249.5 "/>
<polygon class="st23" points="684.8,249.5 682.2,260.3 669.8,238.3 672.3,227.4 "/>
<polygon class="st9" points="684.9,249.8 682.3,260.6 681.6,260.7 684.2,249.9 "/>
<polygon class="st7" points="684.3,250.2 681.8,261 669.1,238.4 671.6,227.6 "/>
<polygon class="st6" points="672,227 672.3,227.4 684.8,249.5 726.7,242.2 727,242.6 727.7,242.5 727.4,242.1 735.9,240.6 
	746.2,226.6 746.3,226.5 747,226.8 746.6,227.3 736.4,241.1 685,250 684.9,249.8 684.2,249.9 684.3,250.2 671.6,227.6 671.3,227.1 
	"/>
<polygon class="st6" points="714.4,219.9 714.6,220.2 727.4,242.1 727.7,242.5 727,242.6 726.7,242.2 715,222.2 714.3,221 
	713.9,220.3 713.8,220.1 "/>
<polygon class="st9" points="727.7,242.5 724.9,253.3 724.2,253.4 727,242.6 "/>
<polygon class="st9" points="635.7,233.3 633.4,244.1 632.7,244.3 635,233.4 "/>
<polygon class="st9" points="671.6,227.6 669.1,238.4 633.6,244.5 635.9,233.7 "/>
<polygon class="st7" points="635.9,233.7 633.6,244.5 633.4,244.1 635.7,233.3 "/>
<polygon class="st7" points="635.2,233.8 632.9,244.6 632.7,244.3 635,233.4 "/>
<polygon class="st22" points="508,218.3 506.3,229.2 476.1,166.8 477.6,155.9 "/>
<polygon class="st6" points="527.7,190.6 527.8,190.8 544.8,224.6 544.9,224.9 544.2,225 544.1,224.7 527.1,190.9 526.9,190.7 "/>
<path class="st25" d="M296,194.8l0.2,0.4c0,0.1,0.1,0.2,0.1,0.4s0.1,0.2,0.1,0.3c0,0.1,0.1,0.2,0.1,0.3L296,194.8z"/>
<polygon class="st9" points="612,237.4 609.8,248.2 609.1,248.3 611.3,237.5 "/>
<polygon class="st7" points="612.2,237.7 610,248.6 609.8,248.2 612,237.4 "/>
<polygon class="st9" points="635.2,233.8 632.9,244.6 610,248.6 612.2,237.7 "/>
<polygon class="st7" points="611.5,237.8 609.3,248.7 609.1,248.3 611.3,237.5 "/>
<polygon class="st1" points="530.4,227.6 528.7,238.5 506.3,229.2 508,218.3 "/>
<polygon class="st9" points="715.3,196.7 712.7,207.4 528.7,238.5 530.4,227.6 "/>
<polygon class="st9" points="736.4,241.1 733.6,251.8 682.5,260.9 685,250 "/>
<polygon class="st7" points="685,250 682.5,260.9 682.3,260.6 684.9,249.8 "/>
<polygon class="st7" points="684.3,250.2 681.8,261 681.6,260.7 684.2,249.9 "/>
<polygon class="st63" points="930.2,246 926.5,256.7 803.5,279.1 806.7,268.4 "/>
<polygon class="st2" points="805.9,268.5 802.7,279.3 714.2,134.8 716.8,124.1 "/>
<polygon class="st27" points="806.5,268.3 803.3,279.1 802.7,279.3 805.9,268.5 "/>
<polygon class="st9" points="587.6,241.6 585.6,252.4 584.8,252.5 586.9,241.7 "/>
<polygon class="st7" points="587.8,241.9 585.7,252.8 585.6,252.4 587.6,241.6 "/>
<polygon class="st9" points="611.5,237.8 609.3,248.7 585.7,252.8 587.8,241.9 "/>
<polygon class="st7" points="587.1,242 585,252.9 584.8,252.5 586.9,241.7 "/>
<polygon class="st6" points="254.5,180.7 254.5,180.8 262.4,202 262.5,202.1 261.7,202.2 261.6,202.1 253.8,180.9 253.7,180.8 "/>
<polygon class="st24" points="194.8,196.3 194.7,207.4 185.5,180.2 185.6,169 "/>
<polygon class="st64" points="194.8,196.3 194.7,207.4 186.4,203.9 186.4,192.8 "/>
<polygon class="st32" points="195.6,196.6 195.5,207.8 194.7,207.4 194.8,196.3 "/>
<polygon class="st65" points="195.6,196.6 195.5,207.8 195.1,208.2 195.2,197.1 "/>
<polygon class="st4" points="186.4,192.8 186.4,203.9 130.5,212.6 130.3,201.4 "/>
<polygon class="st32" points="195.2,197.1 195.1,208.2 186.2,204.5 186.3,193.4 "/>
<polygon class="st9" points="567.1,244.9 565.1,255.7 564.7,255.8 566.7,244.9 "/>
<polygon class="st34" points="567.4,245.4 565.4,256.3 564.7,255.8 566.7,244.9 "/>
<polygon class="st9" points="587.1,242 585,252.9 565.4,256.3 567.4,245.4 "/>
<path class="st25" d="M300.4,211.9h0.3l-0.7,0.1h0.1h0.1h0.1L300.4,211.9z"/>
<polygon class="st27" points="775.4,274 772.4,284.8 771.7,284.9 774.7,274.1 "/>
<polygon class="st16" points="774.7,274.1 771.7,284.9 743.8,238.1 746.6,227.3 "/>
<polygon class="st6" points="732.3,216.6 742.3,220.6 743,220.9 743.7,221.2 775.4,274 774.7,274.1 746.6,227.3 747,226.8 
	746.3,226.5 743.1,221.5 732.3,217.2 714.6,220.2 713.8,220.1 672.3,227.4 672,227 671.3,227.1 671.6,227.6 635.9,233.7 
	635.7,233.3 635,233.4 635.2,233.8 612.2,237.7 612,237.4 611.3,237.5 611.5,237.8 587.8,241.9 587.6,241.6 586.9,241.7 587.1,242 
	567.4,245.4 566.7,244.9 "/>
<polygon class="st15" points="483.9,221.8 482.3,232.8 471.1,248.1 472.6,237.1 "/>
<polygon class="st9" points="566.7,245.5 564.7,256.4 535.8,261.3 537.6,250.4 "/>
<polygon class="st26" points="654.1,267 651.7,277.9 633.6,244.5 635.9,233.7 "/>
<polygon class="st7" points="653.4,267.2 651,278 632.9,244.6 635.2,233.8 "/>
<polygon class="st27" points="654.1,267 651.7,277.9 651,278 653.4,267.2 "/>
<polygon class="st7" points="653.7,267.7 651.2,278.5 651,278 653.4,267.2 "/>
<polygon class="st0" points="186.3,193.4 186.2,204.5 131.4,213 131.2,201.9 "/>
<polygon class="st24" points="200.1,211.4 200,222.6 195,208.2 195.1,197 "/>
<polygon class="st9" points="200.3,212 200.2,223.1 200,223.1 200.1,212 "/>
<polygon class="st24" points="200.1,212 200,223.1 200,222.6 200.1,211.4 "/>
<polygon class="st6" points="404.7,196.1 404.9,196.5 426,244.3 426.1,244.5 425.4,244.6 425.3,244.4 404.1,196.6 404,196.3 "/>
<polygon class="st66" points="653.4,267.2 651,278 627.8,282.1 630.1,271.3 "/>
<polygon class="st26" points="630.1,271.3 627.8,282.1 610,248.6 612.2,237.7 "/>
<polygon class="st6" points="300.1,212 300.8,211.9 301.8,211.7 302,212.2 241.5,221.9 241.1,222 240.9,221.4 241.3,221.4 "/>
<polygon class="st7" points="629.7,271.9 627.3,282.8 609.3,248.7 611.5,237.8 "/>
<polygon class="st27" points="653.7,267.7 651.2,278.5 627.3,282.8 629.7,271.9 "/>
<polygon class="st6" points="635.7,233.3 635.9,233.7 654.1,267 653.4,267.2 653.7,267.7 629.7,271.9 611.5,237.8 611.3,237.5 
	612,237.4 612.2,237.7 630.1,271.3 653.4,267.2 635.2,233.8 635,233.4 "/>
<polygon class="st17" points="537.6,250.4 535.8,261.3 528.7,271.4 530.5,260.5 "/>
<path class="st25" d="M309,233.5h0.1h0.1h0.1h0.1l-1,0.2h0.1h0.1h0.1L309,233.5z"/>
<polygon class="st63" points="775.3,274 772.3,284.8 703.1,297.5 705.8,286.6 "/>
<polygon class="st23" points="705.8,286.6 703.1,297.5 682.5,260.9 685,250 "/>
<polygon class="st7" points="705.1,286.8 702.4,297.6 681.8,261 684.3,250.2 "/>
<polygon class="st7" points="705.2,287 702.5,297.8 702.4,297.6 705.1,286.8 "/>
<polygon class="st26" points="668.5,293.4 665.9,304.2 651.7,277.9 654.1,267 "/>
<polygon class="st27" points="668.5,293.4 665.9,304.2 665.4,304.3 668,293.5 "/>
<polygon class="st63" points="705.1,286.8 702.4,297.6 665.5,304.3 668,293.5 "/>
<polygon class="st27" points="668,293.5 665.4,304.3 665.2,304.3 667.7,293.5 "/>
<polygon class="st7" points="667.7,293.5 665.2,304.3 651.2,278.5 653.7,267.7 "/>
<polygon class="st63" points="668,293.5 665.4,304.3 616.9,313.2 619.2,302.3 "/>
<polygon class="st7" points="607.5,279.8 605.3,290.7 605,290.2 607.3,279.3 "/>
<polygon class="st30" points="619.2,302.3 616.9,313.2 605.3,290.7 607.5,279.8 "/>
<polygon class="st30" points="607.5,279.8 605.3,290.7 585.7,252.8 587.8,241.9 "/>
<polygon class="st27" points="607.3,279.3 605,290.2 604.3,290.3 606.5,279.4 "/>
<polygon class="st7" points="618.5,302.4 616.2,313.3 604.6,290.8 606.8,280 "/>
<polygon class="st7" points="618.6,302.6 616.3,313.5 616.2,313.3 618.5,302.4 "/>
<polygon class="st27" points="619.3,302.5 617,313.4 616.3,313.5 618.6,302.6 "/>
<polygon class="st22" points="516.6,295.8 514.8,306.7 500.6,276.6 502.3,265.7 "/>
<g>
	<g>
		<defs>
			<polygon id="SVGID_00000134944809815317020510000004731573667400097674_" points="516.5,295.7 514.8,306.7 514.7,306.7 
				514.6,306.7 514.6,306.7 514.5,306.7 516.3,295.7 516.3,295.7 516.4,295.7 516.5,295.7 			"/>
		</defs>
		<clipPath id="SVGID_00000126293163187347568360000004699438137279725197_">
			<use xlink:href="#SVGID_00000134944809815317020510000004731573667400097674_"  style="overflow:visible;"/>
		</clipPath>
		<g style="clip-path:url(#SVGID_00000126293163187347568360000004699438137279725197_);">
			<g>
				<path class="st41" d="M516.5,295.7l-1.8,10.9h-0.1h-0.1h-0.1h-0.1l1.8-10.9h0.1h0.1H516.5L516.5,295.7"/>
			</g>
		</g>
	</g>
</g>
<polygon class="st66" points="516.3,295.8 514.5,306.8 483.2,312.4 484.8,301.4 "/>
<polygon class="st27" points="517.6,296.2 515.8,307.1 503.8,309.3 505.5,298.3 "/>
<polygon class="st27" points="505.5,298.3 503.8,309.3 503,309.3 504.8,298.4 "/>
<polygon class="st22" points="515.4,321.1 513.6,332.1 503.1,309.4 504.8,298.5 "/>
<polygon class="st27" points="516.2,321.2 514.5,332.1 513.7,332.3 515.5,321.3 "/>
<polygon class="st22" points="515.5,321.3 513.7,332.3 513.6,332.1 515.4,321.1 "/>
<polygon class="st9" points="466.2,262.7 464.8,273.7 434.5,278.9 435.9,267.9 "/>
<polygon class="st36" points="463.5,330.5 462,341.5 434.5,278.9 435.9,267.9 "/>
<polygon class="st63" points="515.4,321.1 513.6,332.1 462,341.5 463.5,330.5 "/>
<polygon class="st9" points="448.2,296.3 446.8,307.3 446.3,307.4 447.7,296.4 "/>
<polygon class="st24" points="448.4,296.9 447,307.9 446.8,307.3 448.2,296.3 "/>
<polygon class="st9" points="448.4,296.9 447,307.9 446.5,308 447.9,297 "/>
<polygon class="st24" points="462.8,330.6 461.3,341.6 446.5,308 447.9,297 "/>
<polygon class="st27" points="463.7,330.8 462.2,341.8 461.4,341.9 462.9,330.9 "/>
<polygon class="st24" points="462.9,330.9 461.4,341.9 461.3,341.6 462.8,330.6 "/>
<polygon class="st9" points="277,295 276.5,306.1 270.7,313.1 271.2,302 "/>
<polygon class="st37" points="292.5,361.5 291.9,372.5 270.7,313.1 271.2,302 "/>
<polygon class="st63" points="462.8,330.6 461.3,341.6 291.9,372.5 292.5,361.5 "/>
<polygon class="st0" points="292.5,361.5 291.9,372.5 291.2,373 291.8,362 "/>
<polygon class="st24" points="291.8,362 291.2,373 269.9,313 270.4,301.9 "/>
<polygon class="st9" points="254.9,368.3 254.5,379.4 253.7,379.7 254.2,368.6 "/>
<polygon class="st24" points="254.2,368.6 253.7,379.7 230.5,310.8 230.8,299.6 "/>
<polygon class="st63" points="254.1,368.4 253.7,379.5 71,412.9 70.4,401.7 "/>
<polygon class="st9" points="136.1,305.3 136.3,316.5 135.5,316.7 135.3,305.5 "/>
<polygon class="st24" points="135.4,305.9 135.6,317.1 135.5,316.7 135.3,305.5 "/>
<polygon class="st9" points="135.4,305.9 135.6,317.1 50.6,331.6 49.9,320.3 "/>
<polygon class="st37" points="70.4,401.7 71,412.9 50.6,331.6 49.9,320.3 "/>
<polygon class="st27" points="930.2,246 926.5,256.7 70.3,413.7 69.7,402.5 "/>
<polygon class="st11" points="170.8,232.7 170.8,243.9 142.2,248.5 142.1,237.3 "/>
<polygon class="st24" points="205.8,227.1 205.6,238.3 200,223.1 200.1,212 "/>
<polygon class="st11" points="205.3,227.2 205.1,238.4 170.8,243.9 170.8,232.7 "/>
<polygon class="st9" points="171.3,232.6 171.3,243.8 170.9,243.9 170.8,232.7 "/>
<polygon class="st9" points="171,233.2 171,244.4 142.4,249 142.2,237.8 "/>
<polygon class="st37" points="154,276 154.1,287.2 142.4,249 142.2,237.8 "/>
<polygon class="st11" points="200,211.5 199.8,222.6 137.4,232.5 137.2,221.3 "/>
<polygon class="st9" points="200.1,212 200,223.1 137.5,233 137.3,221.9 "/>
<polygon class="st37" points="142.1,237.3 142.2,248.5 137.5,233 137.3,221.9 "/>
<polygon class="st9" points="142.1,237.3 142.2,248.5 141.6,248.6 141.5,237.4 "/>
<polygon class="st9" points="142.2,237.8 142.4,249 141.8,249.1 141.6,237.9 "/>
<polygon class="st24" points="141.6,237.9 141.8,249.1 141.6,248.6 141.5,237.4 "/>
<polygon class="st37" points="137.2,221.3 137.4,232.5 131.4,213 131.2,201.9 "/>
<polygon class="st9" points="137.2,221.3 137.4,232.5 136.9,232.6 136.7,221.4 "/>
<polygon class="st9" points="137.3,221.9 137.5,233 137,233.1 136.8,221.9 "/>
<polygon class="st24" points="136.8,221.9 137,233.1 136.9,232.6 136.7,221.4 "/>
<polygon class="st24" points="138.3,227.3 138.5,238.5 130.5,212.6 130.3,201.4 "/>
<polygon class="st24" points="138.4,227.8 138.6,239 138.5,238.5 138.3,227.3 "/>
<polygon class="st11" points="138.2,227.3 138.4,238.5 31.5,255.5 30.7,244.3 "/>
<polygon class="st9" points="138.5,227.8 138.7,239 31.6,256.1 30.9,244.8 "/>
<polygon class="st24" points="153.6,277.6 153.7,288.8 138.6,239 138.4,227.8 "/>
<polygon class="st12" points="153.6,277.4 153.7,288.6 44.4,306.9 43.7,295.6 "/>
<polygon class="st37" points="43.7,295.6 44.4,306.9 31.6,256.1 30.9,244.8 "/>
<polygon class="st9" points="206,227.7 205.8,238.8 205.3,238.9 205.5,227.8 "/>
<polygon class="st24" points="213.1,249.1 212.9,260.2 205.3,238.9 205.5,227.8 "/>
<polygon class="st9" points="213.3,249.6 213.1,260.7 212.7,260.8 212.9,249.7 "/>
<polygon class="st24" points="216.5,260.2 216.3,271.4 212.7,260.8 212.9,249.7 "/>
<polygon class="st68" points="216.5,260.2 216.3,271.4 209.4,279.3 209.6,268.2 "/>
<polygon class="st12" points="212.7,249.1 212.5,260.3 178.7,265.8 178.7,254.6 "/>
<polygon class="st24" points="178.8,255.1 178.8,266.2 178.7,265.8 178.7,254.6 "/>
<polygon class="st9" points="205.5,227.8 205.3,238.9 171.8,244.3 171.8,233.1 "/>
<polygon class="st37" points="178.7,254.6 178.7,265.8 171.8,244.3 171.8,233.1 "/>
<polygon class="st9" points="178.8,255.1 178.8,266.2 178,266.4 178.1,255.2 "/>
<polygon class="st9" points="212.9,249.7 212.7,260.8 178.8,266.4 178.8,255.2 "/>
<polygon class="st37" points="184.3,272.3 184.2,283.5 178.8,266.4 178.8,255.2 "/>
<polygon class="st12" points="209.6,268.2 209.4,279.3 184.2,283.5 184.3,272.3 "/>
<polygon class="st24" points="171.5,233.2 171.5,244.3 171.3,243.8 171.3,232.6 "/>
<polygon class="st9" points="171.5,233.2 171.5,244.3 171,244.4 171,233.2 "/>
<polygon class="st24" points="177.9,254.8 177.9,265.9 171,244.4 171,233.2 "/>
<polygon class="st24" points="178.1,255.2 178,266.4 177.9,265.9 177.9,254.8 "/>
<polygon class="st24" points="183.5,272.5 183.4,283.6 177.8,266 177.8,254.8 "/>
<polygon class="st9" points="184.4,272.6 184.3,283.8 183.5,283.9 183.6,272.7 "/>
<polygon class="st24" points="183.6,272.7 183.5,283.9 183.4,283.6 183.5,272.5 "/>
<g>
	<g>
		<defs>
			<path id="SVGID_00000151519297510305567960000000240540314710944946_" d="M154.4,277.3l0.1,11.2c0-0.1,0-0.2-0.1-0.3
				c0-0.1-0.1-0.2-0.1-0.3s-0.1-0.2-0.1-0.4l-0.1-0.4L154,276l0.1,0.4c0,0.1,0.1,0.2,0.1,0.4s0.1,0.2,0.1,0.3
				S154.4,277.2,154.4,277.3z"/>
		</defs>
		<clipPath id="SVGID_00000043440421711066461110000000319654651875644806_">
			<use xlink:href="#SVGID_00000151519297510305567960000000240540314710944946_"  style="overflow:visible;"/>
		</clipPath>
		<g style="clip-path:url(#SVGID_00000043440421711066461110000000319654651875644806_);">
			<g>
				<path class="st14" d="M154.4,277.3l0.1,11.2c0-0.1,0-0.2-0.1-0.3c0-0.1-0.1-0.2-0.1-0.3s-0.1-0.2-0.1-0.4l-0.1-0.4L154,276
					l0.1,0.4c0,0.1,0.1,0.2,0.1,0.4s0.1,0.2,0.1,0.3S154.4,277.2,154.4,277.3"/>
			</g>
		</g>
	</g>
</g>
<polygon class="st12" points="183.5,272.5 183.4,283.6 154.5,288.5 154.4,277.3 "/>
<polygon class="st12" points="154.4,277.3 154.5,288.5 154.5,288.5 154.4,277.3 "/>
<polygon class="st37" points="154.4,277.3 154.5,288.5 154.1,287.2 154,276 "/>
<polygon class="st65" points="154.4,277.3 154.5,288.5 153.7,288.8 153.6,277.6 "/>
<polygon class="st9" points="210.1,268.7 209.9,279.8 44.5,307.4 43.8,296.1 "/>
<polygon class="st32" points="43.8,296.1 44.5,307.4 43.6,307.1 42.9,295.8 "/>
<polygon class="st9" points="49.9,320.3 50.6,331.6 49.9,331.7 49.2,320.4 "/>
<polygon class="st24" points="49.2,320.4 49.9,331.7 49.7,331.1 49,319.8 "/>
<polygon class="st6" points="42.9,295.8 49.8,319.7 70.4,401.7 254.1,368.4 291.7,361.6 462.8,330.6 515.4,321.1 618.5,302.4 
	668,293.5 705.1,286.8 775.3,274.1 805.9,268.5 930.2,246 69.7,402.5 "/>
<polygon class="st6" points="684.9,249.8 685,250 705.8,286.6 706,286.9 705.2,287 705.1,286.8 684.3,250.2 684.2,249.9 "/>
<polygon class="st27" points="706,286.9 703.2,297.7 702.5,297.8 705.2,287 "/>
<polygon class="st32" points="502.3,265.7 500.6,276.6 485.2,270.1 486.8,259.2 "/>
<polygon class="st7" points="606.5,279.4 604.3,290.3 585,252.9 587.1,242 "/>
<polygon class="st7" points="606.8,280 604.6,290.8 604.3,290.3 606.5,279.4 "/>
<polygon class="st9" points="486.8,259.2 485.2,270.1 465.5,273.5 467,262.6 "/>
<path class="st25" d="M274.1,239.1h0.1h0.1h0.2l-1,0.1h0.1h0.1h0.1L274.1,239.1z"/>
<polygon class="st6" points="200.1,211.4 200.3,212 200.1,212 137.3,221.9 136.8,221.9 136.7,221.4 137.2,221.3 200,211.5 "/>
<polygon class="st14" points="586.5,283 584.4,293.9 565.4,256.3 567.4,245.4 "/>
<polygon class="st66" points="606.5,279.4 604.3,290.3 584.4,293.9 586.5,283 "/>
<polygon class="st27" points="586.5,283 584.4,293.9 584.2,293.9 586.3,283 "/>
<polygon class="st6" points="654.1,267 668.5,293.4 668,293.5 667.7,293.5 653.7,267.7 653.4,267.2 "/>
<polygon class="st22" points="585.8,283.1 583.7,294 564.7,256.4 566.7,245.5 "/>
<polygon class="st27" points="606.8,280 604.6,290.8 584.7,294.4 586.8,283.5 "/>
<polygon class="st6" points="587.6,241.6 587.8,241.9 607.5,279.8 607.3,279.3 606.5,279.4 606.8,280 586.8,283.5 586.5,283.5 
	586.3,283 586.5,283 606.5,279.4 587.1,242 586.9,241.7 "/>
<polygon class="st22" points="586.5,283.5 584.4,294.4 584.2,293.9 586.3,283 "/>
<polygon class="st27" points="586.8,283.5 584.7,294.4 584.4,294.4 586.5,283.5 "/>
<polygon class="st21" points="435.9,267.9 434.5,278.9 433.7,278.8 435,267.8 "/>
<polygon class="st24" points="435.1,268 433.8,279 433.7,278.8 435,267.8 "/>
<polygon class="st6" points="171.3,232.6 171.5,233.2 171,233.2 142.2,237.8 141.6,237.9 141.5,237.4 142.1,237.3 170.8,232.7 "/>
<polygon class="st33" points="545.1,290.3 543.2,301.2 528.7,271.4 530.5,260.5 "/>
<polygon class="st66" points="585.8,283.1 583.7,294 543.2,301.2 545.1,290.3 "/>
<path class="st6" d="M566.7,244.9l0.3,0.5l0.4-0.1l19.1,37.6h-0.2l0.3,0.5l-41.9,7.4l-14.9-30.6l0.1-0.1l7.2-10.3h0.2l29.9-5.1
	L566.7,244.9z M585.8,283.1l-19.1-37.6l-29.1,4.9l-7,10.1l14.5,29.8L585.8,283.1"/>
<polygon class="st22" points="544.6,291 542.7,301.9 527.9,271.3 529.7,260.4 "/>
<polygon class="st27" points="586.5,283.5 584.4,294.4 542.7,301.9 544.6,291 "/>
<polygon class="st6" points="607.3,279.3 607.5,279.8 619.2,302.3 619.3,302.5 618.6,302.6 618.5,302.4 606.8,280 606.5,279.4 "/>
<polygon class="st9" points="396.9,274.1 395.8,285.1 395,285.2 396.1,274.2 "/>
<polygon class="st9" points="435,267.8 433.7,278.8 395.9,285.5 397.1,274.5 "/>
<polygon class="st24" points="397.1,274.5 395.9,285.5 395.8,285.1 396.9,274.1 "/>
<polygon class="st24" points="396.3,274.6 395.2,285.7 395,285.2 396.1,274.2 "/>
<polygon class="st24" points="255.9,264.6 255.5,275.7 233,212.3 233.3,201.2 "/>
<polygon class="st6" points="205.8,227.1 206,227.7 205.5,227.8 171.8,233.1 178.7,254.6 178.8,255.1 178.1,255.2 177.9,254.8 
	171,233.2 171.5,233.2 171.3,232.6 170.8,232.7 205.3,227.2 "/>
<polygon class="st22" points="504.8,298.5 503.1,309.4 503,309.3 504.8,298.4 "/>
<polygon class="st9" points="472.6,237.1 471.1,248.1 272.3,281.6 272.8,270.5 "/>
<polygon class="st32" points="272.8,270.5 272.3,281.6 255.5,275.7 255.9,264.6 "/>
<polygon class="st24" points="447.7,296.4 446.3,307.4 433.8,279 435.1,268 "/>
<polygon class="st36" points="484.8,301.4 483.2,312.4 465.5,273.5 467,262.6 "/>
<polygon class="st24" points="484.3,302.1 482.7,313.1 464.8,273.7 466.2,262.7 "/>
<polygon class="st27" points="504.8,298.4 503,309.3 482.7,313.1 484.3,302.1 "/>
<polygon class="st37" points="30.7,244.3 31.5,255.5 1.7,137.2 0.8,126 "/>
<polygon class="st9" points="30.7,244.3 31.5,255.5 31.2,256.1 30.4,244.9 "/>
<polygon class="st9" points="30.9,244.8 31.6,256.1 31.2,256.1 30.4,244.9 "/>
<polygon class="st6" points="186.4,192.8 194.8,196.3 195.6,196.6 195.2,197.1 186.3,193.4 131.2,201.9 137.2,221.3 136.7,221.4 
	136.8,221.9 137.3,221.9 142.1,237.3 141.5,237.4 141.6,237.9 142.2,237.8 154,276 154.4,277.3 153.6,277.6 138.4,227.8 
	138.3,227.3 130.3,201.4 "/>
<polygon class="st6" points="138.2,227.3 138.5,227.8 30.9,244.8 30.4,244.9 30.3,244.3 30.7,244.3 "/>
<polygon class="st24" points="30.4,244.9 31.2,256.1 31,255.6 30.3,244.3 "/>
<polygon class="st0" points="217.4,260.3 217.1,271.5 209.9,279.8 210.1,268.7 "/>
<polygon class="st6" points="213.1,249.1 213.3,249.6 212.9,249.7 178.8,255.2 184.3,272.3 184.4,272.6 183.6,272.7 183.5,272.5 
	177.8,254.8 177.9,254.8 178.1,255.2 178.8,255.1 178.7,254.6 212.7,249.1 "/>
<polygon class="st62" points="447.7,296.4 446.3,307.4 408,314.2 409.2,303.2 "/>
<polygon class="st37" points="409.2,303.2 408,314.2 395.9,285.5 397.1,274.5 "/>
<polygon class="st24" points="408.7,303.9 407.4,314.9 395.2,285.7 396.3,274.6 "/>
<polygon class="st6" points="396.9,274.1 397.1,274.5 409.2,303.2 447.7,296.4 448.2,296.3 448.4,296.9 447.9,297 408.7,303.9 
	396.3,274.6 396.1,274.2 "/>
<polygon class="st9" points="447.9,297 446.5,308 407.4,314.9 408.7,303.9 "/>
<polygon class="st6" points="505.5,298.2 505.5,298.3 516.1,321 516.2,321.2 515.5,321.3 515.4,321.1 504.8,298.5 504.8,298.4 "/>
<path class="st25" d="M154,276l0.1,0.4c0,0.1,0.1,0.2,0.1,0.4s0.1,0.2,0.1,0.3s0,0.2,0.1,0.3h-0.1L154,276z"/>
<polygon class="st9" points="396.3,274.6 395.2,285.7 276.5,306.1 277,295 "/>
<polygon class="st0" points="215.1,291.8 214.9,302.9 214.5,303.4 214.7,292.3 "/>
<polygon class="st56" points="230.8,299.6 230.5,310.8 214.6,303.4 214.8,292.3 "/>
<polygon class="st6" points="435.8,267.6 435.9,267.9 463.5,330.5 463.7,330.8 462.9,330.9 462.8,330.6 447.9,297 448.4,296.9 
	448.2,296.3 447.7,296.4 435.1,268 435,267.8 "/>
<polygon class="st9" points="182.6,297.6 182.5,308.8 181.7,308.9 181.8,297.7 "/>
<polygon class="st9" points="213.6,292.7 213.4,303.9 182.6,309 182.6,297.9 "/>
<polygon class="st24" points="182.6,297.9 182.6,309 182.5,308.8 182.6,297.6 "/>
<polygon class="st24" points="181.9,298 181.8,309.2 181.7,308.9 181.8,297.7 "/>
<polygon class="st24" points="136.2,305.7 136.4,316.9 136.3,316.5 136.1,305.3 "/>
<polygon class="st9" points="181.9,298 181.8,309.2 136.4,316.9 136.2,305.7 "/>
<polygon class="st62" points="213.6,292.7 213.4,303.9 198.4,326.8 198.5,315.6 "/>
<polygon class="st24" points="42.9,295.8 43.6,307.1 0.9,137.1 0,125.9 "/>
<polygon class="st6" points="161,82.4 160.1,82.6 24.8,101.7 0.8,126 30.7,244.3 30.4,244.9 43.7,295.6 153.6,277.4 154.4,277.5 
	183.5,272.5 184.4,272.6 209.6,268.2 216.5,260.2 212.9,249.7 213.1,249.1 205.5,227.8 205.8,227.1 200.1,212 200.1,211.4 
	195.1,197 195.6,196.6 194.8,196.3 185.6,169 215.5,164.5 204.1,132.4 178.6,136.1 160.5,83 161.2,82.9 179.2,135.5 204.7,131.8 
	216.5,164.9 186.5,169.4 217.4,260.3 210.1,268.7 43.8,296.1 42.9,295.8 0,125.9 24.4,101.2 "/>
<polygon class="st27" points="214.7,292.3 214.5,303.4 199,327.3 199.1,316.1 "/>
<polygon class="st37" points="188.8,317.3 188.7,328.5 182.6,309 182.6,297.9 "/>
<polygon class="st62" points="198.5,315.6 198.4,326.8 188.7,328.5 188.8,317.3 "/>
<polygon class="st24" points="188,317.4 187.9,328.6 181.8,309.2 181.9,298 "/>
<polygon class="st24" points="188.9,317.7 188.9,328.8 188.7,328.5 188.8,317.3 "/>
<polygon class="st9" points="188.9,317.7 188.9,328.8 188.1,329 188.1,317.8 "/>
<polygon class="st24" points="188.1,317.8 188.1,329 187.9,328.6 188,317.4 "/>
<polygon class="st6" points="182.6,297.6 182.6,297.9 188.8,317.3 188.9,317.7 188.1,317.8 188,317.4 181.9,298 181.8,297.7 "/>
<polygon class="st62" points="188,317.4 187.9,328.6 142.2,336.5 142,325.3 "/>
<polygon class="st37" points="142,325.3 142.2,336.5 136.4,316.9 136.2,305.7 "/>
<polygon class="st24" points="141.2,325.5 141.4,336.7 135.6,317.1 135.4,305.9 "/>
<polygon class="st24" points="142.1,325.6 142.3,336.9 142.2,336.5 142,325.3 "/>
<polygon class="st9" points="142.1,325.6 142.3,336.9 141.5,337 141.3,325.8 "/>
<polygon class="st6" points="136.1,305.3 136.2,305.7 142,325.3 142.1,325.6 141.3,325.8 141.2,325.5 135.4,305.9 135.3,305.5 "/>
<polygon class="st24" points="141.3,325.8 141.5,337 141.4,336.7 141.2,325.5 "/>
<polygon class="st24" points="141.3,326.1 141.5,337.3 141.3,336.7 141.1,325.5 "/>
<polygon class="st9" points="199.1,316.1 199,327.3 141.5,337.3 141.3,326.1 "/>
<polygon class="st6" points="215.1,291.8 214.7,292.3 199.1,316.1 141.3,326.1 141.1,325.5 141.3,325.8 142.1,325.6 142,325.3 
	188,317.4 188.1,317.8 188.9,317.7 188.8,317.3 198.5,315.6 213.6,292.7 182.6,297.9 182.6,297.6 181.8,297.7 181.9,298 
	136.2,305.7 136.1,305.3 135.3,305.5 135.4,305.9 49.9,320.3 49.2,320.4 49,319.8 49.8,319.7 "/>
<path class="st6" d="M486.9,258.6l16.1,6.8l14.6,30.9l-12,2.1h-0.8l-20.5,3.7l-18-39.4l-30.4,5.2l-0.9-0.1l-38,6.8l-0.2-0.5
	l-0.8,0.1l0.2,0.5L277,295l-5.8,7l21.3,59.5l-0.7,0.5l-21.5-60l6.1-7.4L486.9,258.6z M516.6,295.8l-14.2-30.1l-15.5-6.5l-19.8,3.4
	l17.8,38.8l31.5-5.6L516.6,295.8"/>
<polygon class="st6" points="215.2,291.8 231.5,299.2 254.9,368.3 254.2,368.6 230.8,299.6 214.8,292.3 215,292 "/>
<polygon class="st24" points="69.7,402.5 70.3,413.7 43.6,307.1 42.9,295.8 "/>
<polygon class="st6" points="355.6,165 355.7,165.2 363.2,182.9 363.3,183.1 362.6,183.2 362.5,183.1 355,165.4 354.9,165.1 "/>
<polygon class="st6" points="659.8,117.8 687.2,128.5 722.1,186.7 715.3,196.7 530.4,227.6 508,218.3 477.6,155.9 477,154.8 
	484.8,144.7 508.8,141 509,141.5 485.4,145.1 481.2,150.4 480.7,150.8 477.8,154.9 483.8,167.2 483.6,167.7 497.5,195.2 
	497.5,195.7 508.6,218 530.5,227 544.1,224.7 544.9,224.9 574.7,219.6 575.5,219.8 670.9,203.6 671.6,203.4 702.6,198.2 
	703.5,198.4 714.8,196.2 721.2,186.8 721.8,186.5 721.1,186.3 713.8,174 713.8,173.5 703.7,157.3 703.8,156.7 687.5,130.2 
	687.8,129.6 687.1,129.4 686.6,128.8 659.8,118.3 641.3,121.2 640.5,121 625.6,123.6 625.4,123.2 624.8,123.3 625,123.7 
	602.7,127.1 601.9,126.9 579.9,130.6 579.7,130.2 579,130.3 579.2,130.7 560.6,133.6 559.8,133.4 532.9,137.8 532.1,137.6 
	509.7,141.4 509.5,140.9 "/>
<polygon id="TBB02" class="st25" points="773.3,96.6 776.5,101.4 760.3,103.9 757.1,99 "/>
<polygon id="TBB01" class="st25" points="756.5,99.1 769.5,119.4 719.4,127.2 717.5,124.2 731.2,103 "/>
<polygon id="TBB03" class="st25" points="769.8,119.8 779.6,135 729.2,143.1 719.7,127.7 "/>
<polygon id="TBB58" class="st25" points="659.8,118.3 686.6,128.8 687,129.5 682.7,136.1 652.7,140.8 641.3,121.2 "/>
<path id="TBB57" class="st25" d="M640.6,121.3l0.3,0.6v0.1l0,0v0.1l0,0l11.1,19l-15.1,2.4l-11.2-19.7L640.6,121.3z"/>
<polygon id="TBB04" class="st25" points="779.9,135.5 801.1,168.2 750,176.7 729.5,143.5 "/>
<polygon id="TBB56" class="st25" points="625,123.7 643.8,156.7 621.3,160.3 602.7,127.1 "/>
<polygon id="TBB46" class="st25" points="687.5,130.2 703.4,156.8 649.6,165.4 644.5,156.6 637.1,143.8 683.3,136.5 "/>
<polygon id="TBB55" class="st25" points="602.1,127.2 620.6,160.4 598.1,164 579.9,130.6 "/>
<polygon id="TBB48" class="st25" points="703.7,157.3 713.5,173.6 691,177.2 681.4,160.9 "/>
<polygon id="TBB54" class="st25" points="579.2,130.7 597.4,164.1 578.5,167.1 560.6,133.6 "/>
<polygon id="TBB49" class="st25" points="713.8,174 721.1,186.3 711.2,183.4 696.1,185.9 691.3,177.7 "/>
<polygon id="TBB50" class="st25" points="509,141.5 519.2,161.6 507.9,163.4 481.2,150.4 485.4,145.1 "/>
<polygon id="TBB53" class="st25" points="559.9,133.7 577.9,167.2 550.5,171.6 532.9,137.8 "/>
<polygon id="TBB05" class="st25" points="763.9,199.3 750.2,177.2 801.4,168.7 815.5,190.6 "/>
<polygon id="TBB52" class="st25" points="480.9,150.9 507,163.5 483.8,167.2 477.8,154.9 "/>
<polygon id="TBB47" class="st25" points="711.2,183.9 721.2,186.8 714.8,196.2 703.3,198.1 696.4,186.3 "/>
<polygon id="TBB45" class="st25" points="680.7,161 702.6,198.2 671.6,203.4 649.9,165.9 "/>
<polygon id="TBB34" class="st25" points="437.1,152.7 453.5,159.4 459.4,171.8 423,177.6 413.4,156.4 "/>
<polygon id="TBB32" class="st25" points="388.1,160.3 392.4,170 377.4,172.4 373.1,162.6 "/>
<polygon id="TBB40" class="st25" points="372.4,162.7 376.7,172.5 380.1,180.3 363.2,182.9 355.7,165.2 "/>
<polygon id="TBB39" class="st25" points="355,165.4 362.5,183.1 346.2,185.6 338.9,167.8 "/>
<polygon id="TBB41" class="st25" points="412.7,156.5 428.9,192.1 404.6,196 393.2,170.2 388.8,160.2 "/>
<polygon id="TBB37" class="st25" points="279.5,199.3 271.5,178.2 287.8,175.7 296,196.7 "/>
<polygon id="TBB30" class="st25" points="338.2,167.9 345.5,185.8 352.9,203.6 328.3,207.5 313.9,171.7 "/>
<path id="TBB29" class="st25" d="M353.1,204.1l20.5,49l-25.2,4.2L328.5,208l0.7-0.1h0.3h0.1h0.1h0.2h0.2h0.2h0.2L353.1,204.1z"/>
<polygon id="TBB36" class="st25" points="254.5,180.8 270.8,178.3 278.8,199.4 262.4,202 "/>
<path id="TBB38" class="st25" d="M288.5,175.6l24.6-3.8l14.4,35.8l-25,4l-6-15.4c0-0.1,0-0.2-0.1-0.3c0-0.1-0.1-0.2-0.1-0.3
	s-0.1-0.2-0.1-0.4l-0.2-0.4l-3.6-9.3l-0.5-1.4l-0.5-1.4l-0.5-1.4l-0.5-1.4L288.5,175.6z"/>
<polygon id="TBB35" class="st25" points="253.8,180.9 261.6,202.1 235.8,206.1 234.1,201.3 252.1,181.2 "/>
<polygon id="TBB59" class="st25" points="429.1,192.6 436.4,208.4 473.9,202.4 483.1,221.7 472,236.6 426,244.3 404.9,196.5 "/>
<polygon id="TBB31" class="st25" points="392.6,170.5 404.1,196.6 425.3,244.4 374.3,253 353.8,203.9 346.4,186.1 381,180.7 
	377.6,172.9 "/>
<path id="TBB26" class="st25" d="M241.5,221.9l60.5-9.6l8.2,21l-0.7,0.1h-0.1h-0.1h-0.1H309h-0.1h-0.1h-0.1h-0.1l-34,5.5h-0.2h-0.1
	h-0.1H274h-0.1h-0.1h-0.1l-24.5,4L241.5,221.9z"/>
<path id="TBB28" class="st25" d="M327.8,208.1l19.8,49.3l-25.6,4.2l-19.3-49.6l0.6-0.1h0.1h0.1h0.1h0.1h0.2h0.2h0.2h0.2L327.8,208.1
	z"/>
<path id="TBB24" class="st25" d="M276.3,239.3l34.1-5.5l10.9,28l-47.6,8l0,0l0,0l0,0l0,0l8.8-14.1L276.3,239.3z"/>
<polygon id="TBB25" class="st25" points="249.3,243.8 275.5,239.5 281.5,255.5 272.6,269.8 256.6,264.2 "/>
<polygon id="TBB51" class="st25" points="532.3,137.9 557,185.6 497.5,195.2 484.1,167.7 520.2,162 509.7,141.4 "/>
<path id="TBM05" class="st25" d="M644.1,157.2l5.3,9.1c0.4,0.8,0.8,1.5,1.3,2.3l1.3,2.3l1.3,2.3c0.5,0.8,0.9,1.5,1.4,2.3l16.2,28.1
	l-95.5,16c-0.2-0.3-0.3-0.5-0.4-0.8l-0.4-0.8l-0.4-0.8l-0.4-0.8l-15.6-30l-7.4-14.3L644.1,157.2z"/>
<polygon id="TBB07" class="st25" points="714.6,220.2 732.3,217.2 743.1,221.5 746.2,226.6 735.9,240.6 727.4,242.1 "/>
<polygon id="TBB33" class="st25" points="459.6,172.3 473.6,201.8 436.9,207.8 429.7,192.2 423.3,178.1 "/>
<polygon id="TBB42" class="st25" points="557.3,186.1 574.7,219.6 544.8,224.6 527.8,190.8 "/>
<polygon id="TBB60" class="st25" points="527.1,190.9 544.1,224.7 530.5,227 508.6,218 497.7,195.7 "/>
<path id="TBB08" class="st25" d="M713.9,220.3l0.4,0.6c0,0.1,0.1,0.2,0.2,0.3l0.2,0.3l0.2,0.3l0.2,0.3l11.7,20l-42,7.3l-12.4-22
	L713.9,220.3z"/>
<path id="TBM01" class="st25" d="M826.7,128l8.5,12.7l20.8-3.4L930.2,246l-123.5,22.4l-42.4-68.5l52.2-8.9l-0.9-1.4l-0.1-0.2
	l-0.1-0.2l-0.2-0.2l-0.2-0.2l-34.4-53.2L826.7,128z"/>
<path id="TBB27" class="st25" d="M296.2,197.2l5.6,14.5l-1,0.2h-0.3h-0.1h-0.1h-0.1h-0.1l-58.8,9.4l-5.3-14.6l27.4-4.3h0.1h0.1h0.1
	h0.1h0.2h0.2h0.2h0.2l15.8-2.5h0.1h0.1h0.1h0.1h0.2h0.2h0.2h0.2L296.2,197.2z"/>
<polygon id="TBB10" class="st25" points="635.2,233.8 653.4,267.2 630.1,271.3 612.2,237.7 "/>
<polygon id="TBB06" class="st25" points="746.6,227.3 774.7,274.1 775.3,274 705.8,286.6 685,250 736.4,241.1 "/>
<polygon id="TBB22" class="st25" points="186.3,193.4 195.1,197 200,211.5 137.2,221.3 131.2,201.9 "/>
<polygon id="TBB12" class="st25" points="587.1,242 606.5,279.4 586.5,283 567.4,245.4 "/>
<polygon id="TBB09" class="st25" points="671.6,227.6 684.3,250.2 705.1,286.8 668,293.5 668.5,293.4 654.1,267 635.9,233.7 "/>
<polygon id="TBB23" class="st25" points="200.1,212 205.3,227.2 170.8,232.7 142.1,237.3 137.3,221.9 "/>
<polygon id="TBB62" class="st25" points="537.6,250.4 566.7,245.5 585.8,283.1 545.1,290.3 530.5,260.5 "/>
<polygon id="TBB11" class="st25" points="611.5,237.8 629.7,271.9 653.7,267.7 667.7,293.5 668,293.5 619.2,302.3 607.5,279.8 
	587.8,241.9 "/>
<polygon id="TBB20" class="st25" points="205.5,227.8 212.7,249.1 178.7,254.6 171.8,233.1 "/>
<path id="TBB61" class="st25" d="M486.8,259.2l15.5,6.5l14.2,30h-0.1h-0.1h-0.1h-0.1l-31.5,5.6L467,262.6L486.8,259.2z"/>
<polygon id="TBM03" class="st25" points="160.3,83 178.6,136.1 204.1,132.4 215.5,164.5 185.6,169 194.8,196.3 186.4,192.8 
	130.3,201.4 138.2,227.3 30.7,244.3 0.8,126 24.8,101.7 "/>
<polygon id="TBB19" class="st25" points="212.9,249.7 216.5,260.2 209.6,268.2 184.3,272.3 178.8,255.2 "/>
<polygon id="TBB64" class="st25" points="435.1,268 447.7,296.4 409.2,303.2 397.1,274.5 "/>
<path id="TBB21" class="st25" d="M171,233.2l6.9,21.5l5.6,17.7l-29.1,4.8c0-0.1,0-0.2-0.1-0.3s-0.1-0.2-0.1-0.3s-0.1-0.2-0.1-0.4
	L154,276l-11.7-38.2L171,233.2z"/>
<polygon id="TBB13" class="st25" points="466.2,262.7 484.3,302.1 504.8,298.5 515.4,321.1 463.5,330.5 435.9,267.9 "/>
<polygon id="TBM06" class="st25" points="43.7,295.6 30.9,244.8 138.4,227.8 153.6,277.4 "/>
<path id="TBB17" class="st25" d="M213.5,292.7L213.5,292.7L213.5,292.7L213.5,292.7l-15.1,22.9l-9.7,1.7l-6.2-19.4L213.5,292.7z"/>
<polygon id="TBB18" class="st25" points="181.9,298 188,317.4 142,325.3 136.2,305.7 "/>
<polygon id="TBM04" class="st25" points="396.3,274.6 408.7,303.9 447.9,297 462.8,330.6 292.5,361.5 271.2,302 277,295 "/>
<polygon id="TBM02" title="Test" class="st25" points="214.8,292.3 230.8,299.6 254.1,368.4 70.4,401.7 49.9,320.3 135.4,305.9 141.2,325.5 
	141.3,326.1 199.1,316.1 "/>
<polygon id="TBH01" class="st25" points="196.7,78.2 699.7,9.1 726.4,24.7 745,53 732.3,72.3 740.8,85.6 226.9,162.9 "/>
</svg>
